<svg width="32" height="32" viewBox="0 0 41 40" fill="none" xmlns="http://www.w3.org/2000/svg">
<g clip-path="url(#clip0_1925_35253)">
<path d="M24.3727 13.3336L15.706 22.0003C15.1756 22.5307 14.8776 23.2501 14.8776 24.0003C14.8776 24.7504 15.1756 25.4698 15.706 26.0003C16.2364 26.5307 16.9558 26.8287 17.706 26.8287C18.4561 26.8287 19.1756 26.5307 19.706 26.0003L28.3727 17.3336C29.4335 16.2727 30.0295 14.8339 30.0295 13.3336C30.0295 11.8333 29.4335 10.3945 28.3727 9.33361C27.3118 8.27275 25.8729 7.67676 24.3727 7.67676C22.8724 7.67676 21.4335 8.27275 20.3727 9.33361L11.706 18.0003C10.1147 19.5916 9.2207 21.7498 9.2207 24.0003C9.2207 26.2507 10.1147 28.409 11.706 30.0003C13.2973 31.5916 15.4555 32.4856 17.706 32.4856C19.9564 32.4856 22.1147 31.5916 23.706 30.0003L32.3727 21.3336" stroke="#fff" stroke-width="2.66667" stroke-linecap="round" stroke-linejoin="round"/>
</g>
<defs>
<clipPath id="clip0_1925_35253">
<rect x="4.37109" y="4" width="32" height="32" rx="2.66667" fill="white"/>
</clipPath>
</defs>
</svg>
