<svg width="32" height="32" viewBox="0 0 41 40" fill="none" xmlns="http://www.w3.org/2000/svg">
<path d="M13.0304 28.0003H9.63037C7.7237 28.0003 6.76367 27.0403 6.76367 25.1336V9.53369C6.76367 7.62702 7.7237 6.66699 9.63037 6.66699H15.3637C17.2704 6.66699 18.2303 7.62702 18.2303 9.53369V12.0003" stroke="#fff" stroke-width="2.66667" stroke-miterlimit="10" stroke-linecap="round" stroke-linejoin="round"/>
<path d="M27.2559 15.2266V30.1067C27.2559 32.2534 26.1893 33.3333 24.0426 33.3333H16.2559C14.1093 33.3333 13.0293 32.2534 13.0293 30.1067V15.2266C13.0293 13.08 14.1093 12 16.2559 12H24.0426C26.1893 12 27.2559 13.08 27.2559 15.2266Z" stroke="#fff" stroke-width="2.66667" stroke-miterlimit="10" stroke-linecap="round" stroke-linejoin="round"/>
<path d="M21.9648 12.0003V9.53369C21.9648 7.62702 22.9248 6.66699 24.8315 6.66699H30.5648C32.4714 6.66699 33.4315 7.62702 33.4315 9.53369V25.1336C33.4315 27.0403 32.4714 28.0003 30.5648 28.0003H27.2581" stroke="#fff" stroke-width="2.66667" stroke-miterlimit="10" stroke-linecap="round" stroke-linejoin="round"/>
<path d="M17.4316 18.667H22.765" stroke="#fff" stroke-width="2.66667" stroke-miterlimit="10" stroke-linecap="round" stroke-linejoin="round"/>
<path d="M17.4316 22.667H22.765" stroke="#fff" stroke-width="2.66667" stroke-miterlimit="10" stroke-linecap="round" stroke-linejoin="round"/>
<path d="M20.0977 33.333V29.333" stroke="#fff" stroke-width="2.66667" stroke-miterlimit="10" stroke-linecap="round" stroke-linejoin="round"/>
</svg>
