<svg width="27" height="27" viewBox="0 0 33 32" fill="none" xmlns="http://www.w3.org/2000/svg">
<path d="M16.2728 19.3337C18.1137 19.3337 19.6061 17.8413 19.6061 16.0003C19.6061 14.1594 18.1137 12.667 16.2728 12.667C14.4318 12.667 12.9395 14.1594 12.9395 16.0003C12.9395 17.8413 14.4318 19.3337 16.2728 19.3337Z" stroke="#fff" stroke-width="2.66667" stroke-miterlimit="10" stroke-linecap="round" stroke-linejoin="round"/>
<path d="M24.9395 12.667V19.3337" stroke="#fff" stroke-width="2.66667" stroke-miterlimit="10" stroke-linecap="round" stroke-linejoin="round"/>
<path d="M12.2721 24.0003C12.2721 25.0003 11.9922 25.947 11.4988 26.747C10.5788 28.2937 8.88547 29.3337 6.9388 29.3337C4.99214 29.3337 3.29878 28.2937 2.37878 26.747C1.88545 25.947 1.60547 25.0003 1.60547 24.0003C1.60547 21.0537 3.99214 18.667 6.9388 18.667C9.88547 18.667 12.2721 21.0537 12.2721 24.0003Z" stroke="#fff" stroke-width="2.66667" stroke-miterlimit="10" stroke-linecap="round" stroke-linejoin="round"/>
<path d="M4.86133 24L6.18132 25.32L9.02132 22.6934" stroke="#fff" stroke-width="2.66667" stroke-linecap="round" stroke-linejoin="round"/>
<path d="M2.93945 20.3997V11.9997C2.93945 7.33301 5.60612 5.33301 9.60612 5.33301H22.9395C26.9395 5.33301 29.6061 7.33301 29.6061 11.9997V19.9997C29.6061 24.6663 26.9395 26.6663 22.9395 26.6663H11.6061" stroke="#fff" stroke-width="2.66667" stroke-miterlimit="10" stroke-linecap="round" stroke-linejoin="round"/>
</svg>
