<svg width="35" height="35" viewBox="0 0 41 40" fill="none" xmlns="http://www.w3.org/2000/svg">
<path d="M9.85504 11.0904C9.29788 11.6475 8.85592 12.309 8.55439 13.0369C8.25285 13.7649 8.09766 14.5451 8.09766 15.3331C8.09766 16.121 8.25285 16.9012 8.55439 17.6292C8.85592 18.3571 9.29788 19.0186 9.85504 19.5757L20.0977 29.8184L30.3404 19.5757C31.4656 18.4505 32.0977 16.9244 32.0977 15.3331C32.0977 13.7418 31.4656 12.2156 30.3404 11.0904C29.2151 9.96517 27.689 9.33302 26.0977 9.33302C24.5064 9.33302 22.9803 9.96517 21.855 11.0904L20.0977 12.8477L18.3404 11.0904C17.7832 10.5332 17.1218 10.0913 16.3938 9.78974C15.6659 9.4882 14.8856 9.33301 14.0977 9.33301C13.3098 9.33301 12.5295 9.4882 11.8016 9.78974C11.0736 10.0913 10.4122 10.5332 9.85504 11.0904V11.0904Z" stroke="#fff" stroke-width="2.66667" stroke-linecap="round" stroke-linejoin="round"/>
</svg>
