<svg width="27" height="27" viewBox="0 0 33 32" fill="none" xmlns="http://www.w3.org/2000/svg">
<path d="M16.5489 10.5195L15.1222 12.9995C14.8022 13.5462 15.0689 13.9995 15.6956 13.9995H17.3889C18.0289 13.9995 18.2822 14.4529 17.9622 14.9995L16.5489 17.4795" stroke="#fff" stroke-width="2.66667" stroke-linecap="round" stroke-linejoin="round"/>
<path d="M11.614 24.0532V22.5066C8.54734 20.6532 6.02734 17.0399 6.02734 13.1999C6.02734 6.59991 12.094 1.42658 18.9473 2.91991C21.9607 3.58658 24.6007 5.58658 25.974 8.34658C28.7607 13.9466 25.8273 19.8932 21.5207 22.4932V24.0399C21.5207 24.4266 21.6673 25.3199 20.2407 25.3199H12.894C11.4273 25.3332 11.614 24.7599 11.614 24.0532Z" stroke="#fff" stroke-width="2.66667" stroke-linecap="round" stroke-linejoin="round"/>
<path d="M11.8828 29.3336C14.9361 28.4669 18.1628 28.4669 21.2161 29.3336" stroke="#fff" stroke-width="2.66667" stroke-linecap="round" stroke-linejoin="round"/>
</svg>
