<svg width="277" height="48" viewBox="0 0 277 48" fill="none" xmlns="http://www.w3.org/2000/svg">
<rect width="48" height="48" rx="8" fill="#2A85FF"/>
<path d="M61.44 20.5V5.6H71.34V8H64.16V11.82H70.94V14.22H64.16V18.1H71.34V20.5H61.44ZM76.4145 20.74C75.6545 20.74 74.9945 20.6133 74.4345 20.36C73.8745 20.1067 73.4412 19.7467 73.1345 19.28C72.8279 18.8 72.6745 18.2467 72.6745 17.62C72.6745 17.02 72.8079 16.4867 73.0745 16.02C73.3412 15.54 73.7545 15.14 74.3145 14.82C74.8745 14.5 75.5812 14.2733 76.4345 14.14L79.9945 13.56V15.56L76.9345 16.08C76.4145 16.1733 76.0279 16.34 75.7745 16.58C75.5212 16.82 75.3945 17.1333 75.3945 17.52C75.3945 17.8933 75.5345 18.1933 75.8145 18.42C76.1079 18.6333 76.4679 18.74 76.8945 18.74C77.4412 18.74 77.9212 18.6267 78.3345 18.4C78.7612 18.16 79.0879 17.8333 79.3145 17.42C79.5545 17.0067 79.6745 16.5533 79.6745 16.06V13.26C79.6745 12.7933 79.4879 12.4067 79.1145 12.1C78.7545 11.78 78.2745 11.62 77.6745 11.62C77.1145 11.62 76.6145 11.7733 76.1745 12.08C75.7479 12.3733 75.4345 12.7667 75.2345 13.26L73.0945 12.22C73.3079 11.6467 73.6412 11.1533 74.0945 10.74C74.5612 10.3133 75.1079 9.98 75.7345 9.74C76.3612 9.5 77.0412 9.38 77.7745 9.38C78.6679 9.38 79.4545 9.54667 80.1345 9.88C80.8145 10.2 81.3412 10.6533 81.7145 11.24C82.1012 11.8133 82.2945 12.4867 82.2945 13.26V20.5H79.8145V18.64L80.3745 18.6C80.0945 19.0667 79.7612 19.46 79.3745 19.78C78.9879 20.0867 78.5479 20.3267 78.0545 20.5C77.5612 20.66 77.0145 20.74 76.4145 20.74ZM88.8561 20.74C87.6961 20.74 86.6828 20.4667 85.8161 19.92C84.9628 19.36 84.3761 18.6067 84.0561 17.66L86.0161 16.72C86.2961 17.3333 86.6828 17.8133 87.1761 18.16C87.6828 18.5067 88.2428 18.68 88.8561 18.68C89.3361 18.68 89.7161 18.5733 89.9961 18.36C90.2761 18.1467 90.4161 17.8667 90.4161 17.52C90.4161 17.3067 90.3561 17.1333 90.2361 17C90.1294 16.8533 89.9761 16.7333 89.7761 16.64C89.5894 16.5333 89.3828 16.4467 89.1561 16.38L87.3761 15.88C86.4561 15.6133 85.7561 15.2067 85.2761 14.66C84.8094 14.1133 84.5761 13.4667 84.5761 12.72C84.5761 12.0533 84.7428 11.4733 85.0761 10.98C85.4228 10.4733 85.8961 10.08 86.4961 9.8C87.1094 9.52 87.8094 9.38 88.5961 9.38C89.6228 9.38 90.5294 9.62667 91.3161 10.12C92.1028 10.6133 92.6628 11.3067 92.9961 12.2L90.9961 13.14C90.8094 12.6467 90.4961 12.2533 90.0561 11.96C89.6161 11.6667 89.1228 11.52 88.5761 11.52C88.1361 11.52 87.7894 11.62 87.5361 11.82C87.2828 12.02 87.1561 12.28 87.1561 12.6C87.1561 12.8 87.2094 12.9733 87.3161 13.12C87.4228 13.2667 87.5694 13.3867 87.7561 13.48C87.9561 13.5733 88.1828 13.66 88.4361 13.74L90.1761 14.26C91.0694 14.5267 91.7561 14.9267 92.2361 15.46C92.7294 15.9933 92.9761 16.6467 92.9761 17.42C92.9761 18.0733 92.8028 18.6533 92.4561 19.16C92.1094 19.6533 91.6294 20.04 91.0161 20.32C90.4028 20.6 89.6828 20.74 88.8561 20.74ZM96.1142 24.92C95.8209 24.92 95.5342 24.8933 95.2542 24.84C94.9742 24.8 94.7209 24.7267 94.4942 24.62V22.42C94.6676 22.46 94.8742 22.5 95.1142 22.54C95.3676 22.58 95.6009 22.6 95.8142 22.6C96.4142 22.6 96.8476 22.46 97.1142 22.18C97.3942 21.9 97.6409 21.5333 97.8542 21.08L98.5742 19.4L98.5342 21.6L93.7942 9.62H96.6142L99.9342 18.46H98.9342L102.234 9.62H105.074L100.334 21.6C100.054 22.3067 99.7142 22.9067 99.3142 23.4C98.9142 23.8933 98.4476 24.2667 97.9142 24.52C97.3942 24.7867 96.7942 24.92 96.1142 24.92ZM110.288 20.5V5.6H113.008V20.5H110.288ZM115.654 20.5V9.62H118.114V11.76L117.914 11.38C118.167 10.7267 118.58 10.2333 119.154 9.9C119.74 9.55333 120.42 9.38 121.194 9.38C121.994 9.38 122.7 9.55333 123.314 9.9C123.94 10.2467 124.427 10.7333 124.774 11.36C125.12 11.9733 125.294 12.6867 125.294 13.5V20.5H122.674V14.12C122.674 13.64 122.58 13.2267 122.394 12.88C122.207 12.5333 121.947 12.2667 121.614 12.08C121.294 11.88 120.914 11.78 120.474 11.78C120.047 11.78 119.667 11.88 119.334 12.08C119 12.2667 118.74 12.5333 118.554 12.88C118.367 13.2267 118.274 13.64 118.274 14.12V20.5H115.654ZM131.649 20.74C130.489 20.74 129.476 20.4667 128.609 19.92C127.756 19.36 127.169 18.6067 126.849 17.66L128.809 16.72C129.089 17.3333 129.476 17.8133 129.969 18.16C130.476 18.5067 131.036 18.68 131.649 18.68C132.129 18.68 132.509 18.5733 132.789 18.36C133.069 18.1467 133.209 17.8667 133.209 17.52C133.209 17.3067 133.149 17.1333 133.029 17C132.922 16.8533 132.769 16.7333 132.569 16.64C132.382 16.5333 132.176 16.4467 131.949 16.38L130.169 15.88C129.249 15.6133 128.549 15.2067 128.069 14.66C127.602 14.1133 127.369 13.4667 127.369 12.72C127.369 12.0533 127.536 11.4733 127.869 10.98C128.216 10.4733 128.689 10.08 129.289 9.8C129.902 9.52 130.602 9.38 131.389 9.38C132.416 9.38 133.322 9.62667 134.109 10.12C134.896 10.6133 135.456 11.3067 135.789 12.2L133.789 13.14C133.602 12.6467 133.289 12.2533 132.849 11.96C132.409 11.6667 131.916 11.52 131.369 11.52C130.929 11.52 130.582 11.62 130.329 11.82C130.076 12.02 129.949 12.28 129.949 12.6C129.949 12.8 130.002 12.9733 130.109 13.12C130.216 13.2667 130.362 13.3867 130.549 13.48C130.749 13.5733 130.976 13.66 131.229 13.74L132.969 14.26C133.862 14.5267 134.549 14.9267 135.029 15.46C135.522 15.9933 135.769 16.6467 135.769 17.42C135.769 18.0733 135.596 18.6533 135.249 19.16C134.902 19.6533 134.422 20.04 133.809 20.32C133.196 20.6 132.476 20.74 131.649 20.74ZM137.783 24.5V9.62H140.243V11.78L140.003 11.24C140.376 10.6533 140.883 10.2 141.523 9.88C142.163 9.54667 142.903 9.38 143.743 9.38C144.769 9.38 145.696 9.63333 146.523 10.14C147.349 10.6467 148.003 11.3267 148.483 12.18C148.976 13.0333 149.223 13.9933 149.223 15.06C149.223 16.1133 148.983 17.0733 148.503 17.94C148.023 18.8067 147.369 19.4933 146.543 20C145.716 20.4933 144.776 20.74 143.723 20.74C142.936 20.74 142.209 20.5867 141.543 20.28C140.889 19.96 140.369 19.5067 139.983 18.92L140.403 18.4V24.5H137.783ZM143.423 18.34C144.023 18.34 144.556 18.2 145.023 17.92C145.489 17.64 145.849 17.2533 146.103 16.76C146.369 16.2667 146.503 15.7 146.503 15.06C146.503 14.42 146.369 13.86 146.103 13.38C145.849 12.8867 145.489 12.5 145.023 12.22C144.556 11.9267 144.023 11.78 143.423 11.78C142.849 11.78 142.329 11.92 141.863 12.2C141.409 12.48 141.049 12.8733 140.783 13.38C140.529 13.8733 140.403 14.4333 140.403 15.06C140.403 15.7 140.529 16.2667 140.783 16.76C141.049 17.2533 141.409 17.64 141.863 17.92C142.329 18.2 142.849 18.34 143.423 18.34ZM156.38 20.74C155.26 20.74 154.28 20.4867 153.44 19.98C152.6 19.4733 151.947 18.7867 151.48 17.92C151.013 17.0533 150.78 16.0933 150.78 15.04C150.78 13.9467 151.013 12.98 151.48 12.14C151.96 11.2867 152.607 10.6133 153.42 10.12C154.247 9.62667 155.167 9.38 156.18 9.38C157.033 9.38 157.78 9.52 158.42 9.8C159.073 10.08 159.627 10.4667 160.08 10.96C160.533 11.4533 160.88 12.02 161.12 12.66C161.36 13.2867 161.48 13.9667 161.48 14.7C161.48 14.8867 161.467 15.08 161.44 15.28C161.427 15.48 161.393 15.6533 161.34 15.8H152.94V13.8H159.86L158.62 14.74C158.74 14.1267 158.707 13.58 158.52 13.1C158.347 12.62 158.053 12.24 157.64 11.96C157.24 11.68 156.753 11.54 156.18 11.54C155.633 11.54 155.147 11.68 154.72 11.96C154.293 12.2267 153.967 12.6267 153.74 13.16C153.527 13.68 153.447 14.3133 153.5 15.06C153.447 15.7267 153.533 16.32 153.76 16.84C154 17.3467 154.347 17.74 154.8 18.02C155.267 18.3 155.8 18.44 156.4 18.44C157 18.44 157.507 18.3133 157.92 18.06C158.347 17.8067 158.68 17.4667 158.92 17.04L161.04 18.08C160.827 18.6 160.493 19.06 160.04 19.46C159.587 19.86 159.047 20.1733 158.42 20.4C157.807 20.6267 157.127 20.74 156.38 20.74ZM168.706 20.74C167.626 20.74 166.653 20.4933 165.786 20C164.933 19.4933 164.259 18.8133 163.766 17.96C163.273 17.0933 163.026 16.12 163.026 15.04C163.026 13.96 163.273 12.9933 163.766 12.14C164.259 11.2867 164.933 10.6133 165.786 10.12C166.653 9.62667 167.626 9.38 168.706 9.38C169.479 9.38 170.199 9.52 170.866 9.8C171.533 10.0667 172.106 10.44 172.586 10.92C173.079 11.3867 173.433 11.9467 173.646 12.6L171.346 13.6C171.146 13.0533 170.806 12.6133 170.326 12.28C169.859 11.9467 169.319 11.78 168.706 11.78C168.133 11.78 167.619 11.92 167.166 12.2C166.726 12.48 166.379 12.8667 166.126 13.36C165.873 13.8533 165.746 14.42 165.746 15.06C165.746 15.7 165.873 16.2667 166.126 16.76C166.379 17.2533 166.726 17.64 167.166 17.92C167.619 18.2 168.133 18.34 168.706 18.34C169.333 18.34 169.879 18.1733 170.346 17.84C170.813 17.5067 171.146 17.06 171.346 16.5L173.646 17.54C173.433 18.1533 173.086 18.7067 172.606 19.2C172.126 19.68 171.553 20.06 170.886 20.34C170.219 20.6067 169.493 20.74 168.706 20.74ZM180.594 20.62C179.367 20.62 178.414 20.2867 177.734 19.62C177.067 18.94 176.734 17.9867 176.734 16.76V11.96H174.854V9.62H175.054C175.587 9.62 176.001 9.48 176.294 9.2C176.587 8.92 176.734 8.51333 176.734 7.98V7.14H179.354V9.62H181.854V11.96H179.354V16.62C179.354 16.98 179.414 17.2867 179.534 17.54C179.667 17.7933 179.867 17.9867 180.134 18.12C180.414 18.2533 180.767 18.32 181.194 18.32C181.287 18.32 181.394 18.3133 181.514 18.3C181.647 18.2867 181.774 18.2733 181.894 18.26V20.5C181.707 20.5267 181.494 20.5533 181.254 20.58C181.014 20.6067 180.794 20.62 180.594 20.62ZM183.896 20.5V9.62H186.516V20.5H183.896ZM183.896 8.4V5.6H186.516V8.4H183.896ZM194.255 20.74C193.188 20.74 192.215 20.4933 191.335 20C190.468 19.5067 189.775 18.8333 189.255 17.98C188.748 17.1267 188.495 16.1533 188.495 15.06C188.495 13.9667 188.748 12.9933 189.255 12.14C189.775 11.2867 190.468 10.6133 191.335 10.12C192.202 9.62667 193.175 9.38 194.255 9.38C195.322 9.38 196.288 9.62667 197.155 10.12C198.022 10.6133 198.708 11.2867 199.215 12.14C199.735 12.98 199.995 13.9533 199.995 15.06C199.995 16.1533 199.735 17.1267 199.215 17.98C198.695 18.8333 198.002 19.5067 197.135 20C196.268 20.4933 195.308 20.74 194.255 20.74ZM194.255 18.34C194.842 18.34 195.355 18.2 195.795 17.92C196.248 17.64 196.602 17.2533 196.855 16.76C197.122 16.2533 197.255 15.6867 197.255 15.06C197.255 14.42 197.122 13.86 196.855 13.38C196.602 12.8867 196.248 12.5 195.795 12.22C195.355 11.9267 194.842 11.78 194.255 11.78C193.655 11.78 193.128 11.9267 192.675 12.22C192.222 12.5 191.862 12.8867 191.595 13.38C191.342 13.86 191.215 14.42 191.215 15.06C191.215 15.6867 191.342 16.2533 191.595 16.76C191.862 17.2533 192.222 17.64 192.675 17.92C193.128 18.2 193.655 18.34 194.255 18.34ZM201.982 20.5V9.62H204.442V11.76L204.242 11.38C204.495 10.7267 204.908 10.2333 205.482 9.9C206.068 9.55333 206.748 9.38 207.522 9.38C208.322 9.38 209.028 9.55333 209.642 9.9C210.268 10.2467 210.755 10.7333 211.102 11.36C211.448 11.9733 211.622 12.6867 211.622 13.5V20.5H209.002V14.12C209.002 13.64 208.908 13.2267 208.722 12.88C208.535 12.5333 208.275 12.2667 207.942 12.08C207.622 11.88 207.242 11.78 206.802 11.78C206.375 11.78 205.995 11.88 205.662 12.08C205.328 12.2667 205.068 12.5333 204.882 12.88C204.695 13.2267 204.602 13.64 204.602 14.12V20.5H201.982Z" fill="#100A55"/>
<path opacity="0.5" d="M61.162 43.5V33.07H62.534V43.5H61.162ZM64.6994 43.5V35.954H65.9734V37.424L65.7634 37.298C65.9501 36.822 66.2487 36.4533 66.6594 36.192C67.0794 35.9213 67.5694 35.786 68.1294 35.786C68.6707 35.786 69.1514 35.9073 69.5714 36.15C70.0007 36.3927 70.3367 36.7287 70.5794 37.158C70.8314 37.5873 70.9574 38.0727 70.9574 38.614V43.5H69.6414V39.034C69.6414 38.614 69.5667 38.2593 69.4174 37.97C69.2681 37.6807 69.0534 37.4567 68.7734 37.298C68.5027 37.13 68.1901 37.046 67.8354 37.046C67.4807 37.046 67.1634 37.13 66.8834 37.298C66.6127 37.4567 66.3981 37.6853 66.2394 37.984C66.0807 38.2733 66.0014 38.6233 66.0014 39.034V43.5H64.6994ZM75.5225 43.668C74.7665 43.668 74.1085 43.4813 73.5485 43.108C72.9885 42.7347 72.5918 42.2307 72.3585 41.596L73.3945 41.092C73.6092 41.54 73.9032 41.8947 74.2765 42.156C74.6498 42.4173 75.0652 42.548 75.5225 42.548C75.9332 42.548 76.2738 42.45 76.5445 42.254C76.8152 42.058 76.9505 41.8013 76.9505 41.484C76.9505 41.26 76.8852 41.0827 76.7545 40.952C76.6332 40.812 76.4838 40.7047 76.3065 40.63C76.1292 40.546 75.9658 40.4853 75.8165 40.448L74.6825 40.126C74.0012 39.93 73.5018 39.65 73.1845 39.286C72.8765 38.922 72.7225 38.4973 72.7225 38.012C72.7225 37.564 72.8345 37.1767 73.0585 36.85C73.2918 36.514 73.6045 36.2527 73.9965 36.066C74.3978 35.8793 74.8458 35.786 75.3405 35.786C76.0032 35.786 76.5958 35.954 77.1185 36.29C77.6505 36.626 78.0285 37.0973 78.2525 37.704L77.1885 38.194C77.0205 37.802 76.7685 37.494 76.4325 37.27C76.0965 37.0367 75.7185 36.92 75.2985 36.92C74.9158 36.92 74.6125 37.018 74.3885 37.214C74.1645 37.4007 74.0525 37.6387 74.0525 37.928C74.0525 38.1427 74.1085 38.32 74.2205 38.46C74.3325 38.5907 74.4678 38.6933 74.6265 38.768C74.7852 38.8333 74.9392 38.8893 75.0885 38.936L76.3205 39.3C76.9365 39.4773 77.4125 39.7527 77.7485 40.126C78.0938 40.4993 78.2665 40.9473 78.2665 41.47C78.2665 41.89 78.1498 42.268 77.9165 42.604C77.6832 42.94 77.3612 43.2013 76.9505 43.388C76.5398 43.5747 76.0638 43.668 75.5225 43.668ZM79.9709 46.3V35.954H81.2449V37.578L81.0769 37.256C81.3569 36.808 81.7396 36.4533 82.2249 36.192C82.7102 35.9213 83.2656 35.786 83.8909 35.786C84.6002 35.786 85.2349 35.9587 85.7949 36.304C86.3642 36.6493 86.8122 37.1207 87.1389 37.718C87.4656 38.306 87.6289 38.978 87.6289 39.734C87.6289 40.4713 87.4656 41.1387 87.1389 41.736C86.8122 42.3333 86.3642 42.8047 85.7949 43.15C85.2349 43.4953 84.5956 43.668 83.8769 43.668C83.2702 43.668 82.7149 43.5327 82.2109 43.262C81.7162 42.9913 81.3336 42.6087 81.0629 42.114L81.2729 41.89V46.3H79.9709ZM83.7789 42.408C84.2549 42.408 84.6796 42.2913 85.0529 42.058C85.4262 41.8247 85.7156 41.5073 85.9209 41.106C86.1356 40.6953 86.2429 40.238 86.2429 39.734C86.2429 39.2113 86.1356 38.754 85.9209 38.362C85.7156 37.9607 85.4262 37.6433 85.0529 37.41C84.6796 37.1673 84.2549 37.046 83.7789 37.046C83.3029 37.046 82.8736 37.1627 82.4909 37.396C82.1176 37.6293 81.8189 37.9513 81.5949 38.362C81.3802 38.7633 81.2729 39.2207 81.2729 39.734C81.2729 40.238 81.3802 40.6953 81.5949 41.106C81.8189 41.5073 82.1176 41.8247 82.4909 42.058C82.8736 42.2913 83.3029 42.408 83.7789 42.408ZM92.8081 43.668C92.0801 43.668 91.4315 43.4953 90.8621 43.15C90.2928 42.8047 89.8448 42.3333 89.5181 41.736C89.1915 41.1293 89.0281 40.4527 89.0281 39.706C89.0281 38.95 89.1868 38.278 89.5041 37.69C89.8308 37.102 90.2695 36.64 90.8201 36.304C91.3801 35.9587 92.0055 35.786 92.6961 35.786C93.2561 35.786 93.7508 35.8887 94.1801 36.094C94.6188 36.29 94.9875 36.5607 95.2861 36.906C95.5941 37.242 95.8275 37.6293 95.9861 38.068C96.1541 38.4973 96.2381 38.9453 96.2381 39.412C96.2381 39.5147 96.2288 39.6313 96.2101 39.762C96.2008 39.8833 96.1868 40 96.1681 40.112H89.9801V38.992H95.4121L94.7961 39.496C94.8801 39.0107 94.8335 38.5767 94.6561 38.194C94.4788 37.8113 94.2175 37.508 93.8721 37.284C93.5268 37.06 93.1348 36.948 92.6961 36.948C92.2575 36.948 91.8561 37.06 91.4921 37.284C91.1281 37.508 90.8435 37.83 90.6381 38.25C90.4421 38.6607 90.3628 39.1507 90.4001 39.72C90.3628 40.2707 90.4468 40.756 90.6521 41.176C90.8668 41.5867 91.1655 41.9087 91.5481 42.142C91.9401 42.366 92.3648 42.478 92.8221 42.478C93.3261 42.478 93.7508 42.3613 94.0961 42.128C94.4415 41.8947 94.7215 41.596 94.9361 41.232L96.0281 41.792C95.8788 42.1373 95.6455 42.4547 95.3281 42.744C95.0201 43.024 94.6515 43.248 94.2221 43.416C93.8021 43.584 93.3308 43.668 92.8081 43.668ZM101.436 43.668C100.698 43.668 100.04 43.4953 99.4617 43.15C98.8924 42.8047 98.4444 42.3333 98.1177 41.736C97.7911 41.1387 97.6277 40.4667 97.6277 39.72C97.6277 38.964 97.7911 38.292 98.1177 37.704C98.4444 37.116 98.8924 36.6493 99.4617 36.304C100.04 35.9587 100.698 35.786 101.436 35.786C101.93 35.786 102.392 35.8747 102.822 36.052C103.251 36.2293 103.629 36.4673 103.956 36.766C104.282 37.0647 104.52 37.4147 104.67 37.816L103.508 38.376C103.33 37.984 103.06 37.6667 102.696 37.424C102.332 37.172 101.912 37.046 101.436 37.046C100.978 37.046 100.563 37.1627 100.19 37.396C99.8257 37.6293 99.5364 37.9467 99.3217 38.348C99.1071 38.7493 98.9997 39.2113 98.9997 39.734C98.9997 40.238 99.1071 40.6953 99.3217 41.106C99.5364 41.5073 99.8257 41.8247 100.19 42.058C100.563 42.2913 100.978 42.408 101.436 42.408C101.912 42.408 102.332 42.2867 102.696 42.044C103.06 41.792 103.33 41.4607 103.508 41.05L104.67 41.638C104.52 42.03 104.282 42.38 103.956 42.688C103.629 42.9867 103.251 43.2247 102.822 43.402C102.392 43.5793 101.93 43.668 101.436 43.668ZM109.437 43.584C108.7 43.584 108.131 43.374 107.729 42.954C107.337 42.534 107.141 41.9413 107.141 41.176V37.2H105.769V35.954H106.049C106.385 35.954 106.651 35.8513 106.847 35.646C107.043 35.4407 107.141 35.17 107.141 34.834V34.218H108.443V35.954H110.137V37.2H108.443V41.134C108.443 41.386 108.481 41.6053 108.555 41.792C108.639 41.9787 108.775 42.128 108.961 42.24C109.148 42.3427 109.395 42.394 109.703 42.394C109.769 42.394 109.848 42.3893 109.941 42.38C110.044 42.3707 110.137 42.3613 110.221 42.352V43.5C110.1 43.528 109.965 43.5467 109.815 43.556C109.666 43.5747 109.54 43.584 109.437 43.584ZM111.922 43.5V35.954H113.224V43.5H111.922ZM111.922 34.75V33.07H113.224V34.75H111.922ZM118.828 43.668C118.1 43.668 117.442 43.5 116.854 43.164C116.266 42.8187 115.8 42.3473 115.454 41.75C115.109 41.1527 114.936 40.476 114.936 39.72C114.936 38.964 115.104 38.292 115.44 37.704C115.786 37.116 116.252 36.6493 116.84 36.304C117.428 35.9587 118.091 35.786 118.828 35.786C119.556 35.786 120.214 35.9587 120.802 36.304C121.39 36.64 121.852 37.102 122.188 37.69C122.534 38.278 122.706 38.9547 122.706 39.72C122.706 40.4853 122.529 41.1667 122.174 41.764C121.82 42.352 121.348 42.8187 120.76 43.164C120.182 43.5 119.538 43.668 118.828 43.668ZM118.828 42.408C119.295 42.408 119.715 42.2913 120.088 42.058C120.471 41.8247 120.77 41.5027 120.984 41.092C121.208 40.6813 121.32 40.224 121.32 39.72C121.32 39.2067 121.208 38.754 120.984 38.362C120.77 37.9607 120.471 37.6433 120.088 37.41C119.715 37.1673 119.295 37.046 118.828 37.046C118.352 37.046 117.923 37.1673 117.54 37.41C117.167 37.6433 116.868 37.9607 116.644 38.362C116.42 38.754 116.308 39.2067 116.308 39.72C116.308 40.224 116.42 40.6813 116.644 41.092C116.868 41.5027 117.167 41.8247 117.54 42.058C117.923 42.2913 118.352 42.408 118.828 42.408ZM124.404 43.5V35.954H125.678V37.424L125.468 37.298C125.655 36.822 125.954 36.4533 126.364 36.192C126.784 35.9213 127.274 35.786 127.834 35.786C128.376 35.786 128.856 35.9073 129.276 36.15C129.706 36.3927 130.042 36.7287 130.284 37.158C130.536 37.5873 130.662 38.0727 130.662 38.614V43.5H129.346V39.034C129.346 38.614 129.272 38.2593 129.122 37.97C128.973 37.6807 128.758 37.4567 128.478 37.298C128.208 37.13 127.895 37.046 127.54 37.046C127.186 37.046 126.868 37.13 126.588 37.298C126.318 37.4567 126.103 37.6853 125.944 37.984C125.786 38.2733 125.706 38.6233 125.706 39.034V43.5H124.404ZM135.1 43.5V33.07H136.36L140.266 38.628H139.622L143.5 33.07H144.76V43.5H143.374V34.806L143.864 34.96L139.986 40.42H139.874L136.038 34.96L136.472 34.806V43.5H135.1ZM149.134 43.668C148.639 43.668 148.201 43.5793 147.818 43.402C147.445 43.2153 147.151 42.9633 146.936 42.646C146.721 42.3193 146.614 41.946 146.614 41.526C146.614 41.1247 146.698 40.7653 146.866 40.448C147.043 40.1213 147.314 39.846 147.678 39.622C148.051 39.398 148.518 39.2393 149.078 39.146L151.878 38.684V39.776L149.372 40.196C148.887 40.28 148.532 40.434 148.308 40.658C148.093 40.882 147.986 41.1573 147.986 41.484C147.986 41.792 148.107 42.0487 148.35 42.254C148.602 42.4593 148.915 42.562 149.288 42.562C149.764 42.562 150.175 42.464 150.52 42.268C150.875 42.0627 151.15 41.7873 151.346 41.442C151.551 41.0967 151.654 40.714 151.654 40.294V38.376C151.654 37.9653 151.5 37.634 151.192 37.382C150.893 37.1207 150.497 36.99 150.002 36.99C149.573 36.99 149.19 37.102 148.854 37.326C148.527 37.5407 148.285 37.83 148.126 38.194L146.992 37.606C147.132 37.2607 147.356 36.9527 147.664 36.682C147.972 36.402 148.331 36.1827 148.742 36.024C149.153 35.8653 149.582 35.786 150.03 35.786C150.609 35.786 151.117 35.898 151.556 36.122C151.995 36.3367 152.335 36.64 152.578 37.032C152.83 37.4147 152.956 37.8627 152.956 38.376V43.5H151.682V42.072L151.92 42.156C151.761 42.4547 151.547 42.716 151.276 42.94C151.005 43.164 150.688 43.3413 150.324 43.472C149.96 43.6027 149.563 43.668 149.134 43.668ZM154.975 43.5V35.954H156.249V37.424L156.039 37.298C156.225 36.822 156.524 36.4533 156.935 36.192C157.355 35.9213 157.845 35.786 158.405 35.786C158.946 35.786 159.427 35.9073 159.847 36.15C160.276 36.3927 160.612 36.7287 160.855 37.158C161.107 37.5873 161.233 38.0727 161.233 38.614V43.5H159.917V39.034C159.917 38.614 159.842 38.2593 159.693 37.97C159.543 37.6807 159.329 37.4567 159.049 37.298C158.778 37.13 158.465 37.046 158.111 37.046C157.756 37.046 157.439 37.13 157.159 37.298C156.888 37.4567 156.673 37.6853 156.515 37.984C156.356 38.2733 156.277 38.6233 156.277 39.034V43.5H154.975ZM165.308 43.668C164.813 43.668 164.375 43.5793 163.992 43.402C163.619 43.2153 163.325 42.9633 163.11 42.646C162.895 42.3193 162.788 41.946 162.788 41.526C162.788 41.1247 162.872 40.7653 163.04 40.448C163.217 40.1213 163.488 39.846 163.852 39.622C164.225 39.398 164.692 39.2393 165.252 39.146L168.052 38.684V39.776L165.546 40.196C165.061 40.28 164.706 40.434 164.482 40.658C164.267 40.882 164.16 41.1573 164.16 41.484C164.16 41.792 164.281 42.0487 164.524 42.254C164.776 42.4593 165.089 42.562 165.462 42.562C165.938 42.562 166.349 42.464 166.694 42.268C167.049 42.0627 167.324 41.7873 167.52 41.442C167.725 41.0967 167.828 40.714 167.828 40.294V38.376C167.828 37.9653 167.674 37.634 167.366 37.382C167.067 37.1207 166.671 36.99 166.176 36.99C165.747 36.99 165.364 37.102 165.028 37.326C164.701 37.5407 164.459 37.83 164.3 38.194L163.166 37.606C163.306 37.2607 163.53 36.9527 163.838 36.682C164.146 36.402 164.505 36.1827 164.916 36.024C165.327 35.8653 165.756 35.786 166.204 35.786C166.783 35.786 167.291 35.898 167.73 36.122C168.169 36.3367 168.509 36.64 168.752 37.032C169.004 37.4147 169.13 37.8627 169.13 38.376V43.5H167.856V42.072L168.094 42.156C167.935 42.4547 167.721 42.716 167.45 42.94C167.179 43.164 166.862 43.3413 166.498 43.472C166.134 43.6027 165.737 43.668 165.308 43.668ZM174.747 46.58C174.215 46.58 173.72 46.496 173.263 46.328C172.815 46.16 172.427 45.9267 172.101 45.628C171.783 45.3387 171.541 44.998 171.373 44.606L172.591 44.046C172.721 44.4007 172.969 44.6993 173.333 44.942C173.706 45.194 174.173 45.32 174.733 45.32C175.162 45.32 175.549 45.236 175.895 45.068C176.249 44.9093 176.529 44.6667 176.735 44.34C176.94 44.0227 177.043 43.6353 177.043 43.178V41.484L177.281 41.736C177.019 42.2493 176.641 42.6413 176.147 42.912C175.661 43.1827 175.125 43.318 174.537 43.318C173.827 43.318 173.193 43.1547 172.633 42.828C172.073 42.492 171.634 42.0393 171.317 41.47C170.999 40.8913 170.841 40.252 170.841 39.552C170.841 38.8427 170.999 38.2033 171.317 37.634C171.634 37.0647 172.068 36.6167 172.619 36.29C173.179 35.954 173.813 35.786 174.523 35.786C175.111 35.786 175.643 35.9213 176.119 36.192C176.604 36.4533 176.991 36.8173 177.281 37.284L177.085 37.634V35.954H178.359V43.178C178.359 43.8313 178.205 44.4147 177.897 44.928C177.589 45.4413 177.159 45.8427 176.609 46.132C176.067 46.4307 175.447 46.58 174.747 46.58ZM174.649 42.058C175.097 42.058 175.498 41.946 175.853 41.722C176.217 41.498 176.506 41.1993 176.721 40.826C176.935 40.4433 177.043 40.0187 177.043 39.552C177.043 39.0947 176.935 38.6747 176.721 38.292C176.506 37.9093 176.217 37.606 175.853 37.382C175.498 37.158 175.097 37.046 174.649 37.046C174.191 37.046 173.776 37.158 173.403 37.382C173.029 37.606 172.735 37.9093 172.521 38.292C172.315 38.6653 172.213 39.0853 172.213 39.552C172.213 40.0187 172.315 40.4433 172.521 40.826C172.735 41.1993 173.025 41.498 173.389 41.722C173.762 41.946 174.182 42.058 174.649 42.058ZM183.849 43.668C183.121 43.668 182.472 43.4953 181.903 43.15C181.334 42.8047 180.886 42.3333 180.559 41.736C180.232 41.1293 180.069 40.4527 180.069 39.706C180.069 38.95 180.228 38.278 180.545 37.69C180.872 37.102 181.31 36.64 181.861 36.304C182.421 35.9587 183.046 35.786 183.737 35.786C184.297 35.786 184.792 35.8887 185.221 36.094C185.66 36.29 186.028 36.5607 186.327 36.906C186.635 37.242 186.868 37.6293 187.027 38.068C187.195 38.4973 187.279 38.9453 187.279 39.412C187.279 39.5147 187.27 39.6313 187.251 39.762C187.242 39.8833 187.228 40 187.209 40.112H181.021V38.992H186.453L185.837 39.496C185.921 39.0107 185.874 38.5767 185.697 38.194C185.52 37.8113 185.258 37.508 184.913 37.284C184.568 37.06 184.176 36.948 183.737 36.948C183.298 36.948 182.897 37.06 182.533 37.284C182.169 37.508 181.884 37.83 181.679 38.25C181.483 38.6607 181.404 39.1507 181.441 39.72C181.404 40.2707 181.488 40.756 181.693 41.176C181.908 41.5867 182.206 41.9087 182.589 42.142C182.981 42.366 183.406 42.478 183.863 42.478C184.367 42.478 184.792 42.3613 185.137 42.128C185.482 41.8947 185.762 41.596 185.977 41.232L187.069 41.792C186.92 42.1373 186.686 42.4547 186.369 42.744C186.061 43.024 185.692 43.248 185.263 43.416C184.843 43.584 184.372 43.668 183.849 43.668ZM188.977 43.5V35.954H190.251V37.494L190.069 37.256C190.255 36.78 190.554 36.416 190.965 36.164C191.375 35.912 191.837 35.786 192.351 35.786C192.939 35.786 193.466 35.9493 193.933 36.276C194.409 36.6027 194.735 37.032 194.913 37.564L194.549 37.578C194.745 36.99 195.076 36.5467 195.543 36.248C196.009 35.94 196.527 35.786 197.097 35.786C197.619 35.786 198.091 35.9073 198.511 36.15C198.94 36.3927 199.281 36.7287 199.533 37.158C199.785 37.5873 199.911 38.0727 199.911 38.614V43.5H198.595V39.034C198.595 38.614 198.52 38.2593 198.371 37.97C198.221 37.6807 198.016 37.4567 197.755 37.298C197.503 37.13 197.204 37.046 196.859 37.046C196.523 37.046 196.219 37.13 195.949 37.298C195.687 37.4567 195.477 37.6853 195.319 37.984C195.169 38.2733 195.095 38.6233 195.095 39.034V43.5H193.779V39.034C193.779 38.614 193.704 38.2593 193.555 37.97C193.405 37.6807 193.2 37.4567 192.939 37.298C192.687 37.13 192.388 37.046 192.043 37.046C191.707 37.046 191.403 37.13 191.133 37.298C190.871 37.4567 190.661 37.6853 190.503 37.984C190.353 38.2733 190.279 38.6233 190.279 39.034V43.5H188.977ZM205.232 43.668C204.504 43.668 203.855 43.4953 203.286 43.15C202.717 42.8047 202.269 42.3333 201.942 41.736C201.615 41.1293 201.452 40.4527 201.452 39.706C201.452 38.95 201.611 38.278 201.928 37.69C202.255 37.102 202.693 36.64 203.244 36.304C203.804 35.9587 204.429 35.786 205.12 35.786C205.68 35.786 206.175 35.8887 206.604 36.094C207.043 36.29 207.411 36.5607 207.71 36.906C208.018 37.242 208.251 37.6293 208.41 38.068C208.578 38.4973 208.662 38.9453 208.662 39.412C208.662 39.5147 208.653 39.6313 208.634 39.762C208.625 39.8833 208.611 40 208.592 40.112H202.404V38.992H207.836L207.22 39.496C207.304 39.0107 207.257 38.5767 207.08 38.194C206.903 37.8113 206.641 37.508 206.296 37.284C205.951 37.06 205.559 36.948 205.12 36.948C204.681 36.948 204.28 37.06 203.916 37.284C203.552 37.508 203.267 37.83 203.062 38.25C202.866 38.6607 202.787 39.1507 202.824 39.72C202.787 40.2707 202.871 40.756 203.076 41.176C203.291 41.5867 203.589 41.9087 203.972 42.142C204.364 42.366 204.789 42.478 205.246 42.478C205.75 42.478 206.175 42.3613 206.52 42.128C206.865 41.8947 207.145 41.596 207.36 41.232L208.452 41.792C208.303 42.1373 208.069 42.4547 207.752 42.744C207.444 43.024 207.075 43.248 206.646 43.416C206.226 43.584 205.755 43.668 205.232 43.668ZM210.36 43.5V35.954H211.634V37.424L211.424 37.298C211.61 36.822 211.909 36.4533 212.32 36.192C212.74 35.9213 213.23 35.786 213.79 35.786C214.331 35.786 214.812 35.9073 215.232 36.15C215.661 36.3927 215.997 36.7287 216.24 37.158C216.492 37.5873 216.618 38.0727 216.618 38.614V43.5H215.302V39.034C215.302 38.614 215.227 38.2593 215.078 37.97C214.928 37.6807 214.714 37.4567 214.434 37.298C214.163 37.13 213.85 37.046 213.496 37.046C213.141 37.046 212.824 37.13 212.544 37.298C212.273 37.4567 212.058 37.6853 211.9 37.984C211.741 38.2733 211.662 38.6233 211.662 39.034V43.5H210.36ZM221.547 43.584C220.809 43.584 220.24 43.374 219.839 42.954C219.447 42.534 219.251 41.9413 219.251 41.176V37.2H217.879V35.954H218.159C218.495 35.954 218.761 35.8513 218.957 35.646C219.153 35.4407 219.251 35.17 219.251 34.834V34.218H220.553V35.954H222.247V37.2H220.553V41.134C220.553 41.386 220.59 41.6053 220.665 41.792C220.749 41.9787 220.884 42.128 221.071 42.24C221.257 42.3427 221.505 42.394 221.813 42.394C221.878 42.394 221.957 42.3893 222.051 42.38C222.153 42.3707 222.247 42.3613 222.331 42.352V43.5C222.209 43.528 222.074 43.5467 221.925 43.556C221.775 43.5747 221.649 43.584 221.547 43.584ZM230.189 43.668C229.527 43.668 228.92 43.5467 228.369 43.304C227.819 43.052 227.352 42.7113 226.969 42.282C226.587 41.8527 226.311 41.372 226.143 40.84L227.333 40.35C227.585 41.022 227.959 41.54 228.453 41.904C228.957 42.2587 229.545 42.436 230.217 42.436C230.628 42.436 230.987 42.3707 231.295 42.24C231.603 42.1093 231.841 41.9273 232.009 41.694C232.187 41.4513 232.275 41.1713 232.275 40.854C232.275 40.4153 232.149 40.07 231.897 39.818C231.655 39.5567 231.295 39.3607 230.819 39.23L228.901 38.642C228.145 38.4087 227.567 38.04 227.165 37.536C226.764 37.032 226.563 36.4533 226.563 35.8C226.563 35.2307 226.699 34.7313 226.969 34.302C227.249 33.8633 227.632 33.5227 228.117 33.28C228.612 33.028 229.172 32.902 229.797 32.902C230.423 32.902 230.987 33.014 231.491 33.238C232.005 33.462 232.439 33.7653 232.793 34.148C233.148 34.5213 233.409 34.9507 233.577 35.436L232.401 35.926C232.177 35.338 231.841 34.8947 231.393 34.596C230.945 34.288 230.418 34.134 229.811 34.134C229.438 34.134 229.107 34.1993 228.817 34.33C228.537 34.4513 228.318 34.6333 228.159 34.876C228.01 35.1093 227.935 35.3893 227.935 35.716C227.935 36.0987 228.057 36.4393 228.299 36.738C228.542 37.0367 228.911 37.2653 229.405 37.424L231.155 37.942C231.977 38.194 232.597 38.5533 233.017 39.02C233.437 39.4867 233.647 40.0653 233.647 40.756C233.647 41.3253 233.498 41.8293 233.199 42.268C232.91 42.7067 232.504 43.052 231.981 43.304C231.468 43.5467 230.871 43.668 230.189 43.668ZM235.908 46.58C235.74 46.58 235.572 46.566 235.404 46.538C235.236 46.5193 235.077 46.4773 234.928 46.412V45.25C235.031 45.2593 235.157 45.278 235.306 45.306C235.465 45.334 235.619 45.348 235.768 45.348C236.207 45.348 236.538 45.25 236.762 45.054C236.995 44.858 237.215 44.5267 237.42 44.06L237.896 42.926L237.868 44.06L234.648 35.954H236.062L238.568 42.394H238.148L240.64 35.954H242.082L238.68 44.396C238.521 44.7973 238.316 45.166 238.064 45.502C237.821 45.838 237.523 46.0993 237.168 46.286C236.813 46.482 236.393 46.58 235.908 46.58ZM245.942 43.668C245.186 43.668 244.528 43.4813 243.968 43.108C243.408 42.7347 243.012 42.2307 242.778 41.596L243.814 41.092C244.029 41.54 244.323 41.8947 244.696 42.156C245.07 42.4173 245.485 42.548 245.942 42.548C246.353 42.548 246.694 42.45 246.964 42.254C247.235 42.058 247.37 41.8013 247.37 41.484C247.37 41.26 247.305 41.0827 247.174 40.952C247.053 40.812 246.904 40.7047 246.726 40.63C246.549 40.546 246.386 40.4853 246.236 40.448L245.102 40.126C244.421 39.93 243.922 39.65 243.604 39.286C243.296 38.922 243.142 38.4973 243.142 38.012C243.142 37.564 243.254 37.1767 243.478 36.85C243.712 36.514 244.024 36.2527 244.416 36.066C244.818 35.8793 245.266 35.786 245.76 35.786C246.423 35.786 247.016 35.954 247.538 36.29C248.07 36.626 248.448 37.0973 248.672 37.704L247.608 38.194C247.44 37.802 247.188 37.494 246.852 37.27C246.516 37.0367 246.138 36.92 245.718 36.92C245.336 36.92 245.032 37.018 244.808 37.214C244.584 37.4007 244.472 37.6387 244.472 37.928C244.472 38.1427 244.528 38.32 244.64 38.46C244.752 38.5907 244.888 38.6933 245.046 38.768C245.205 38.8333 245.359 38.8893 245.508 38.936L246.74 39.3C247.356 39.4773 247.832 39.7527 248.168 40.126C248.514 40.4993 248.686 40.9473 248.686 41.47C248.686 41.89 248.57 42.268 248.336 42.604C248.103 42.94 247.781 43.2013 247.37 43.388C246.96 43.5747 246.484 43.668 245.942 43.668ZM253.457 43.584C252.719 43.584 252.15 43.374 251.749 42.954C251.357 42.534 251.161 41.9413 251.161 41.176V37.2H249.789V35.954H250.069C250.405 35.954 250.671 35.8513 250.867 35.646C251.063 35.4407 251.161 35.17 251.161 34.834V34.218H252.463V35.954H254.157V37.2H252.463V41.134C252.463 41.386 252.5 41.6053 252.575 41.792C252.659 41.9787 252.794 42.128 252.981 42.24C253.167 42.3427 253.415 42.394 253.723 42.394C253.788 42.394 253.867 42.3893 253.961 42.38C254.063 42.3707 254.157 42.3613 254.241 42.352V43.5C254.119 43.528 253.984 43.5467 253.835 43.556C253.685 43.5747 253.559 43.584 253.457 43.584ZM259.209 43.668C258.481 43.668 257.832 43.4953 257.263 43.15C256.693 42.8047 256.245 42.3333 255.919 41.736C255.592 41.1293 255.429 40.4527 255.429 39.706C255.429 38.95 255.587 38.278 255.905 37.69C256.231 37.102 256.67 36.64 257.221 36.304C257.781 35.9587 258.406 35.786 259.097 35.786C259.657 35.786 260.151 35.8887 260.581 36.094C261.019 36.29 261.388 36.5607 261.687 36.906C261.995 37.242 262.228 37.6293 262.387 38.068C262.555 38.4973 262.639 38.9453 262.639 39.412C262.639 39.5147 262.629 39.6313 262.611 39.762C262.601 39.8833 262.587 40 262.569 40.112H256.381V38.992H261.813L261.197 39.496C261.281 39.0107 261.234 38.5767 261.057 38.194C260.879 37.8113 260.618 37.508 260.273 37.284C259.927 37.06 259.535 36.948 259.097 36.948C258.658 36.948 258.257 37.06 257.893 37.284C257.529 37.508 257.244 37.83 257.039 38.25C256.843 38.6607 256.763 39.1507 256.801 39.72C256.763 40.2707 256.847 40.756 257.053 41.176C257.267 41.5867 257.566 41.9087 257.949 42.142C258.341 42.366 258.765 42.478 259.223 42.478C259.727 42.478 260.151 42.3613 260.497 42.128C260.842 41.8947 261.122 41.596 261.337 41.232L262.429 41.792C262.279 42.1373 262.046 42.4547 261.729 42.744C261.421 43.024 261.052 43.248 260.623 43.416C260.203 43.584 259.731 43.668 259.209 43.668ZM264.336 43.5V35.954H265.61V37.494L265.428 37.256C265.615 36.78 265.913 36.416 266.324 36.164C266.735 35.912 267.197 35.786 267.71 35.786C268.298 35.786 268.825 35.9493 269.292 36.276C269.768 36.6027 270.095 37.032 270.272 37.564L269.908 37.578C270.104 36.99 270.435 36.5467 270.902 36.248C271.369 35.94 271.887 35.786 272.456 35.786C272.979 35.786 273.45 35.9073 273.87 36.15C274.299 36.3927 274.64 36.7287 274.892 37.158C275.144 37.5873 275.27 38.0727 275.27 38.614V43.5H273.954V39.034C273.954 38.614 273.879 38.2593 273.73 37.97C273.581 37.6807 273.375 37.4567 273.114 37.298C272.862 37.13 272.563 37.046 272.218 37.046C271.882 37.046 271.579 37.13 271.308 37.298C271.047 37.4567 270.837 37.6853 270.678 37.984C270.529 38.2733 270.454 38.6233 270.454 39.034V43.5H269.138V39.034C269.138 38.614 269.063 38.2593 268.914 37.97C268.765 37.6807 268.559 37.4567 268.298 37.298C268.046 37.13 267.747 37.046 267.402 37.046C267.066 37.046 266.763 37.13 266.492 37.298C266.231 37.4567 266.021 37.6853 265.862 37.984C265.713 38.2733 265.638 38.6233 265.638 39.034V43.5H264.336Z" fill="#100A55"/>
</svg>
