<svg width="20" height="21" viewBox="0 0 20 21" fill="none" xmlns="http://www.w3.org/2000/svg">
<path opacity="0.2" d="M10.0003 18.8327C14.6027 18.8327 18.3337 15.1017 18.3337 10.4993C18.3337 5.89698 14.6027 2.16602 10.0003 2.16602C5.39795 2.16602 1.66699 5.89698 1.66699 10.4993C1.66699 15.1017 5.39795 18.8327 10.0003 18.8327Z" fill="#2A85FF"/>
<path d="M10 11.9577C10.3417 11.9577 10.625 11.6743 10.625 11.3327V7.16602C10.625 6.82435 10.3417 6.54102 10 6.54102C9.65833 6.54102 9.375 6.82435 9.375 7.16602V11.3327C9.375 11.6743 9.65833 11.9577 10 11.9577Z" fill="#2A85FF"/>
<path d="M10.767 13.5164C10.7253 13.4164 10.667 13.3247 10.592 13.2414C10.5087 13.1664 10.417 13.1081 10.317 13.0664C10.117 12.9831 9.88366 12.9831 9.68366 13.0664C9.58366 13.1081 9.49199 13.1664 9.40866 13.2414C9.33366 13.3247 9.27533 13.4164 9.23366 13.5164C9.19199 13.6164 9.16699 13.7247 9.16699 13.8331C9.16699 13.9414 9.19199 14.0497 9.23366 14.1497C9.27533 14.2581 9.33366 14.3414 9.40866 14.4247C9.49199 14.4997 9.58366 14.5581 9.68366 14.5997C9.78366 14.6414 9.89199 14.6664 10.0003 14.6664C10.1087 14.6664 10.217 14.6414 10.317 14.5997C10.417 14.5581 10.5087 14.4997 10.592 14.4247C10.667 14.3414 10.7253 14.2581 10.767 14.1497C10.8087 14.0497 10.8337 13.9414 10.8337 13.8331C10.8337 13.7247 10.8087 13.6164 10.767 13.5164Z" fill="#2A85FF"/>
</svg>
