<svg width="17" height="16" viewBox="0 0 17 16" fill="none" xmlns="http://www.w3.org/2000/svg">
<path d="M14.75 3.98665C12.53 3.76665 10.2967 3.65332 8.07 3.65332C6.75 3.65332 5.43 3.71999 4.11 3.85332L2.75 3.98665" stroke="#FF613E" stroke-width="1.33333" stroke-linecap="round" stroke-linejoin="round"/>
<path d="M6.41699 3.31301L6.56366 2.43967C6.67033 1.80634 6.75033 1.33301 7.87699 1.33301H9.62366C10.7503 1.33301 10.837 1.83301 10.937 2.44634L11.0837 3.31301" stroke="#FF613E" stroke-width="1.33333" stroke-linecap="round" stroke-linejoin="round"/>
<path d="M13.3169 6.09375L12.8836 12.8071C12.8103 13.8537 12.7503 14.6671 10.8903 14.6671H6.61026C4.75026 14.6671 4.69026 13.8537 4.61693 12.8071L4.18359 6.09375" stroke="#FF613E" stroke-width="1.33333" stroke-linecap="round" stroke-linejoin="round"/>
<path d="M7.63672 11H9.85672" stroke="#FF613E" stroke-width="1.33333" stroke-linecap="round" stroke-linejoin="round"/>
<path d="M7.08301 8.33301H10.4163" stroke="#FF613E" stroke-width="1.33333" stroke-linecap="round" stroke-linejoin="round"/>
</svg>
