<svg width="17" height="16" viewBox="0 0 17 16" fill="none" xmlns="http://www.w3.org/2000/svg">
<path d="M8.08301 1.33301H6.74967C3.41634 1.33301 2.08301 2.66634 2.08301 5.99967V9.99967C2.08301 13.333 3.41634 14.6663 6.74967 14.6663H10.7497C14.083 14.6663 15.4163 13.333 15.4163 9.99967V8.66634" stroke="#9EA3AE" stroke-width="1.33333" stroke-linecap="round" stroke-linejoin="round"/>
<path d="M11.4433 2.0135L6.18992 7.26684C5.98992 7.46684 5.78992 7.86017 5.74992 8.14684L5.46325 10.1535C5.35659 10.8802 5.86992 11.3868 6.59659 11.2868L8.60325 11.0002C8.88325 10.9602 9.27659 10.7602 9.48325 10.5602L14.7366 5.30684C15.6433 4.40017 16.0699 3.34684 14.7366 2.0135C13.4033 0.680168 12.3499 1.10684 11.4433 2.0135Z" stroke="#9EA3AE" stroke-width="1.33333" stroke-miterlimit="10" stroke-linecap="round" stroke-linejoin="round"/>
<path d="M10.6904 2.7666C11.1371 4.35994 12.3838 5.6066 13.9838 6.05994" stroke="#9EA3AE" stroke-width="1.33333" stroke-miterlimit="10" stroke-linecap="round" stroke-linejoin="round"/>
</svg>
