<svg width="25" height="35" viewBox="0 0 20 20" fill="none" xmlns="http://www.w3.org/2000/svg">
<path d="M10.8337 18.3337H4.16699C2.50033 18.3337 1.66699 17.5003 1.66699 15.8337V9.16699C1.66699 7.50033 2.50033 6.66699 4.16699 6.66699H8.33366V15.8337C8.33366 17.5003 9.16699 18.3337 10.8337 18.3337Z" stroke="#000929" stroke-width="1.8" stroke-miterlimit="10" stroke-linecap="round" stroke-linejoin="round"/>
<path d="M8.42531 3.33301C8.35865 3.58301 8.33366 3.85801 8.33366 4.16634V6.66634H4.16699V4.99967C4.16699 4.08301 4.91699 3.33301 5.83366 3.33301H8.42531Z" stroke="#000929" stroke-width="1.8" stroke-miterlimit="10" stroke-linecap="round" stroke-linejoin="round"/>
<path d="M11.667 6.66699V10.8337" stroke="#000929" stroke-width="1.8" stroke-miterlimit="10" stroke-linecap="round" stroke-linejoin="round"/>
<path d="M15 6.66699V10.8337" stroke="#000929" stroke-width="1.8" stroke-miterlimit="10" stroke-linecap="round" stroke-linejoin="round"/>
<path d="M14.167 14.167H12.5003C12.042 14.167 11.667 14.542 11.667 15.0003V18.3337H15.0003V15.0003C15.0003 14.542 14.6253 14.167 14.167 14.167Z" stroke="#000929" stroke-width="1.8" stroke-miterlimit="10" stroke-linecap="round" stroke-linejoin="round"/>
<path d="M8.33301 15.8337V4.16699C8.33301 2.50033 9.16634 1.66699 10.833 1.66699H15.833C17.4997 1.66699 18.333 2.50033 18.333 4.16699V15.8337C18.333 17.5003 17.4997 18.3337 15.833 18.3337H10.833C9.16634 18.3337 8.33301 17.5003 8.33301 15.8337Z" stroke="#000929" stroke-width="1.8" stroke-miterlimit="10" stroke-linecap="round" stroke-linejoin="round"/>
</svg>
