<svg width="25" height="25" viewBox="0 0 32 32" fill="none" xmlns="http://www.w3.org/2000/svg">
<g clip-path="url(#clip0_1925_35005)">
<path d="M27.616 10.5094L18.7277 3.60241C17.9477 2.99615 16.9876 2.66699 15.9993 2.66699C15.0111 2.66699 14.051 2.99615 13.271 3.60241L4.38102 10.5094C3.84675 10.9245 3.4145 11.456 3.11727 12.0635C2.82004 12.671 2.6657 13.3383 2.66602 14.0145V26.0034C2.66602 26.8866 3.01721 27.7337 3.64233 28.3583C4.26745 28.9828 5.11529 29.3337 5.99935 29.3337H25.9994C26.8834 29.3337 27.7313 28.9828 28.3564 28.3583C28.9815 27.7337 29.3327 26.8866 29.3327 26.0034V14.0145C29.3327 12.6441 28.6994 11.3503 27.616 10.5094Z" stroke="#000929" stroke-width="2.66667" stroke-linecap="round" stroke-linejoin="round"/>
</g>
<defs>
<clipPath id="clip0_1925_35005">
<rect width="32" height="32" rx="2.66667" fill="white"/>
</clipPath>
</defs>
</svg>
