<svg width="32" height="32" viewBox="0 0 41 40" fill="none" xmlns="http://www.w3.org/2000/svg">
<path d="M24.097 33.3337H16.097C9.43034 33.3337 6.76367 30.667 6.76367 24.0003V16.0003C6.76367 9.33366 9.43034 6.66699 16.097 6.66699H24.097C30.7637 6.66699 33.4303 9.33366 33.4303 16.0003V24.0003C33.4303 30.667 30.7637 33.3337 24.097 33.3337Z" stroke="#000929" stroke-width="2.66667" stroke-linecap="round" stroke-linejoin="round"/>
<path d="M15.6602 23.1061C15.6602 24.8261 16.9802 26.2128 18.6202 26.2128H21.9668C23.3935 26.2128 24.5535 24.9995 24.5535 23.5061C24.5535 21.8795 23.8468 21.3061 22.7935 20.9328L17.4202 19.0661C16.3668 18.6928 15.6602 18.1195 15.6602 16.4928C15.6602 14.9995 16.8202 13.7861 18.2468 13.7861H21.5935C23.2335 13.7861 24.5535 15.1728 24.5535 16.8928" stroke="#000929" stroke-width="2.66667" stroke-linecap="round" stroke-linejoin="round"/>
<path d="M20.0977 12V28" stroke="#000929" stroke-width="2.66667" stroke-linecap="round" stroke-linejoin="round"/>
</svg>
