<svg width="32" height="32" viewBox="0 0 41 40" fill="none" xmlns="http://www.w3.org/2000/svg">
<path d="M24.1955 16.6266L17.4488 23.3732C16.5822 22.5066 16.0488 21.3199 16.0488 19.9999C16.0488 17.3599 18.1822 15.2266 20.8222 15.2266C22.1422 15.2266 23.3288 15.7599 24.1955 16.6266Z" stroke="#000929" stroke-width="2.66667" stroke-linecap="round" stroke-linejoin="round"/>
<path d="M28.5821 11.6936C26.2487 9.93363 23.5821 8.97363 20.8221 8.97363C16.1154 8.97363 11.7287 11.747 8.67539 16.547C7.47539 18.427 7.47539 21.587 8.67539 23.467C9.72872 25.1203 10.9554 26.547 12.2887 27.6936" stroke="#000929" stroke-width="2.66667" stroke-linecap="round" stroke-linejoin="round"/>
<path d="M16.0488 30.0399C17.5688 30.6799 19.1822 31.0266 20.8222 31.0266C25.5288 31.0266 29.9155 28.2532 32.9688 23.4532C34.1688 21.5732 34.1688 18.4132 32.9688 16.5332C32.5288 15.8399 32.0488 15.1866 31.5555 14.5732" stroke="#000929" stroke-width="2.66667" stroke-linecap="round" stroke-linejoin="round"/>
<path d="M25.5022 20.9326C25.1555 22.8126 23.6222 24.346 21.7422 24.6926" stroke="#000929" stroke-width="2.66667" stroke-linecap="round" stroke-linejoin="round"/>
<path d="M17.4483 23.3721L7.48828 33.3321" stroke="#000929" stroke-width="2.66667" stroke-linecap="round" stroke-linejoin="round"/>
<path d="M34.1553 6.66699L24.1953 16.627" stroke="#000929" stroke-width="2.66667" stroke-linecap="round" stroke-linejoin="round"/>
</svg>
