<svg width="34" height="34" viewBox="0 0 41 40" fill="none" xmlns="http://www.w3.org/2000/svg">
<g clip-path="url(#clip0_1925_35241)">
<path d="M14.1562 10.667H22.1563C23.3939 10.667 24.5809 11.1587 25.4561 12.0338C26.3313 12.909 26.8229 14.096 26.8229 15.3337C26.8229 16.5713 26.3313 17.7583 25.4561 18.6335C24.5809 19.5087 23.3939 20.0003 22.1563 20.0003H14.1562V10.667Z" stroke="#000929" stroke-width="2.66667" stroke-linecap="round" stroke-linejoin="round"/>
<path d="M22.1563 20H23.4896C24.7273 20 25.9142 20.4917 26.7894 21.3668C27.6646 22.242 28.1563 23.429 28.1563 24.6667C28.1563 25.9043 27.6646 27.0913 26.7894 27.9665C25.9142 28.8417 24.7273 29.3333 23.4896 29.3333H14.1562V20" stroke="#000929" stroke-width="2.66667" stroke-linecap="round" stroke-linejoin="round"/>
</g>
<defs>
<clipPath id="clip0_1925_35241">
<rect x="4.82227" y="4" width="32" height="32" rx="2.66667" fill="white"/>
</clipPath>
</defs>
</svg>
