<svg width="45" height="45" viewBox="0 0 56 56" fill="none" xmlns="http://www.w3.org/2000/svg">
<circle cx="28" cy="28" r="28" fill="#000929"/>
<g clip-path="url(#clip0_3611_15994)">
<path d="M36.4705 23.9964L29.9895 18.9601C29.4207 18.518 28.7207 18.278 28.0001 18.278C27.2794 18.278 26.5794 18.518 26.0106 18.9601L19.5284 23.9964C19.1388 24.2991 18.8236 24.6867 18.6069 25.1296C18.3901 25.5726 18.2776 26.0592 18.2778 26.5522V35.2941C18.2778 35.9382 18.5339 36.5558 18.9897 37.0112C19.4455 37.4666 20.0638 37.7225 20.7084 37.7225H35.2917C35.9363 37.7225 36.5546 37.4666 37.0104 37.0112C37.4662 36.5558 37.7223 35.9382 37.7223 35.2941V26.5522C37.7223 25.553 37.2605 24.6096 36.4705 23.9964Z" fill="white" stroke="white" stroke-width="2" stroke-linecap="round" stroke-linejoin="round"/>
</g>
<defs>
<clipPath id="clip0_3611_15994">
<rect width="23.3333" height="23.3333" fill="white" transform="translate(16.3334 16.3333)"/>
</clipPath>
</defs>
</svg>
