<svg width="45" height="45" viewBox="0 0 57 60" fill="none" xmlns="http://www.w3.org/2000/svg">
<rect x="0.5" width="56" height="56" rx="28" fill="#100A55"/>
<path d="M26.8703 22.6296C26.5363 22.6296 26.2592 22.9066 26.2592 23.2407V24.4629C26.2592 24.797 26.5363 25.074 26.8703 25.074C27.2044 25.074 27.4814 24.797 27.4814 24.4629V23.2407C27.4814 22.9066 27.2044 22.6296 26.8703 22.6296Z" fill="#CCE2FF"/>
<path d="M36.6482 27.3148H35.8334V18.1319C35.8334 17.6267 35.6052 17.1541 35.206 16.8445L29.5023 12.4119C28.9156 11.9474 28.0845 11.9474 27.4978 12.4119L21.7941 16.8445C21.3949 17.1541 21.1667 17.6267 21.1667 18.1237L21.126 27.3148H20.3519C20.0178 27.3148 19.7408 27.5837 19.7408 27.9259C19.7408 28.26 20.0178 28.5371 20.3519 28.5371H36.6482C36.9823 28.5371 37.2593 28.26 37.2593 27.9259C37.2593 27.5837 36.9823 27.3148 36.6482 27.3148ZM27.2778 15.5H29.7223C30.0563 15.5 30.3334 15.7771 30.3334 16.1111C30.3334 16.4452 30.0563 16.7222 29.7223 16.7222H27.2778C26.9437 16.7222 26.6667 16.4452 26.6667 16.1111C26.6667 15.7771 26.9437 15.5 27.2778 15.5ZM32.5741 27.3148H24.426V20.1852C24.426 19.5089 24.9719 18.963 25.6482 18.963H31.3519C32.0282 18.963 32.5741 19.5089 32.5741 20.1852V27.3148Z" fill="#CCE2FF"/>
<path d="M17.5 34.4445H39.5" stroke="#CCE2FF" stroke-width="2.44444" stroke-miterlimit="10" stroke-linecap="round" stroke-linejoin="round"/>
<path opacity="0.5" d="M17.5 41.7778H29.7222" stroke="#CCE2FF" stroke-width="2.44444" stroke-miterlimit="10" stroke-linecap="round" stroke-linejoin="round"/>
<rect x="36.5" y="42" width="16" height="18" rx="3" fill="#2A85FF"/>
<path d="M44.2915 54.7495C46.4777 54.7495 48.2499 52.9773 48.2499 50.7912C48.2499 48.605 46.4777 46.8328 44.2915 46.8328C42.1054 46.8328 40.3332 48.605 40.3332 50.7912C40.3332 52.9773 42.1054 54.7495 44.2915 54.7495Z" stroke="white" stroke-width="1.5" stroke-linecap="round" stroke-linejoin="round"/>
<path d="M48.6665 55.1662L47.8332 54.3328" stroke="white" stroke-width="1.5" stroke-linecap="round" stroke-linejoin="round"/>
</svg>
