<svg width="60" height="25" viewBox="0 0 60 25" fill="none" xmlns="http://www.w3.org/2000/svg">
<path fill-rule="evenodd" clip-rule="evenodd" d="M11.2749 3.46741C10.5844 4.2885 9.47965 4.93613 8.37488 4.84361C8.23678 3.7334 8.77766 2.5538 9.4106 1.82522C10.1011 0.980998 11.3094 0.379633 12.2876 0.333374C12.4027 1.48984 11.9539 2.62319 11.2749 3.46741ZM12.276 5.06333C11.3027 5.00704 10.4147 5.35748 9.69733 5.64054C9.23571 5.82269 8.84481 5.97694 8.54741 5.97694C8.21367 5.97694 7.80663 5.81444 7.34961 5.63199C6.75077 5.39292 6.06612 5.1196 5.34816 5.13272C3.70251 5.15585 2.17193 6.09259 1.33184 7.58444C-0.394371 10.5681 0.883027 14.9858 2.5517 17.4144C3.36877 18.6172 4.34696 19.9355 5.63587 19.8893C6.20291 19.8678 6.6108 19.6938 7.03294 19.5138C7.51893 19.3066 8.02379 19.0913 8.8121 19.0913C9.57307 19.0913 10.0559 19.301 10.5193 19.5023C10.96 19.6936 11.3831 19.8774 12.0113 19.8661C13.3463 19.843 14.1864 18.6634 15.0034 17.4607C15.8852 16.1698 16.2727 14.91 16.3315 14.7188L16.3384 14.6967C16.337 14.6953 16.3261 14.6903 16.3069 14.6815C16.0121 14.5458 13.7592 13.5094 13.7376 10.73C13.7159 8.39718 15.5245 7.21521 15.8092 7.02914L15.8093 7.02912C15.8266 7.01781 15.8383 7.01018 15.8435 7.0062C14.6927 5.29463 12.8975 5.10959 12.276 5.06333ZM21.5171 19.7389V1.70958H28.2493C31.7248 1.70958 34.153 4.11503 34.153 7.6307C34.153 11.1464 31.6788 13.575 28.1573 13.575H24.3021V19.7389H21.5171ZM24.3018 4.06876H27.5126C29.9293 4.06876 31.3103 5.36401 31.3103 7.64225C31.3103 9.9205 29.9293 11.2273 27.5011 11.2273H24.3018V4.06876ZM43.3481 17.5763C42.6116 18.9872 40.9889 19.8777 39.2397 19.8777C36.6504 19.8777 34.8436 18.328 34.8436 15.992C34.8436 13.679 36.5928 12.3491 39.8266 12.1525L43.302 11.9443V10.9498C43.302 9.48106 42.3469 8.68309 40.6437 8.68309C39.2397 8.68309 38.2155 9.41167 38.0083 10.5219H35.4996C35.5801 8.18581 37.7667 6.4858 40.7242 6.4858C43.912 6.4858 45.9834 8.16268 45.9834 10.7647V19.7389H43.4056V17.5763H43.3481ZM39.9875 17.7382C38.503 17.7382 37.5593 17.0212 37.5593 15.9226C37.5593 14.7892 38.4685 14.1301 40.2062 14.026L43.3018 13.8294V14.8471C43.3018 16.5355 41.8748 17.7382 39.9875 17.7382ZM54.5338 20.4444C53.4175 23.6016 52.1401 24.6424 49.4242 24.6424C49.2171 24.6424 48.5266 24.6193 48.3655 24.573V22.4104C48.5381 22.4335 48.9639 22.4567 49.1826 22.4567C50.4139 22.4567 51.1044 21.9362 51.5302 20.5832L51.7834 19.7852L47.0651 6.65929H49.9766L53.2564 17.3104H53.314L56.5938 6.65929H59.4248L54.5338 20.4444Z" fill="black"/>
</svg>
