<svg width="58" height="25" viewBox="0 0 58 25" fill="none" xmlns="http://www.w3.org/2000/svg">
<path fill-rule="evenodd" clip-rule="evenodd" d="M26.6955 19.232V12.3845H30.2365C31.6875 12.3845 32.9123 11.8992 33.9107 10.9422L34.1503 10.6996C35.9741 8.71809 35.8542 5.63131 33.9107 3.79812C32.9389 2.82761 31.6077 2.30191 30.2365 2.32887H24.5522V19.232H26.6955ZM26.6957 10.3085V4.40456H30.2906C31.0628 4.40456 31.7951 4.7011 32.341 5.24028C33.4993 6.37254 33.526 8.25966 32.4076 9.43236C31.8617 10.012 31.0894 10.3355 30.2906 10.3085H26.6957ZM44.1478 8.56976C43.2292 7.72056 41.9779 7.28922 40.3937 7.28922C38.357 7.28922 36.8261 8.04406 35.8144 9.54027L37.7047 10.7399C38.3969 9.7155 39.3421 9.20329 40.5402 9.20329C41.299 9.20329 42.0311 9.48635 42.6036 9.99857C43.1627 10.4838 43.4822 11.1848 43.4822 11.9261V12.4249C42.6568 11.9666 41.6185 11.7239 40.3405 11.7239C38.8495 11.7239 37.6514 12.0744 36.7595 12.7888C35.8676 13.5032 35.415 14.4468 35.415 15.6464C35.3884 16.7383 35.8543 17.7762 36.6797 18.4771C37.5183 19.2319 38.5833 19.6094 39.8346 19.6094C41.3123 19.6094 42.4837 18.9489 43.3757 17.6279H43.4688V19.2319H45.5189V12.1014C45.5189 10.6051 45.0663 9.41896 44.1478 8.56976ZM38.3307 17.1022C37.8913 16.7787 37.6251 16.253 37.6251 15.6869C37.6251 15.0534 37.918 14.5277 38.4905 14.1098C39.0763 13.692 39.8086 13.4763 40.674 13.4763C41.8723 13.4628 42.8043 13.7324 43.47 14.2716C43.47 15.1882 43.1105 15.9834 42.4049 16.6574C41.7658 17.3044 40.9004 17.6684 39.995 17.6684C39.3959 17.6818 38.81 17.4797 38.3307 17.1022ZM50.125 24.3136L57.2869 7.66663H54.9573L51.6425 15.9699H51.6026L48.208 7.66663H45.8784L50.5776 18.4906L47.9151 24.3136H50.125Z" fill="#3C4043"/>
<path d="M19.2961 10.9017C19.2961 10.2412 19.2428 9.58073 19.1363 8.93372H10.0974V12.6675H15.2758C15.0628 13.8672 14.3706 14.9455 13.3589 15.6195V18.0458H16.4473C18.2577 16.3608 19.2961 13.8672 19.2961 10.9017Z" fill="#4285F4"/>
<path d="M10.098 20.3913C12.6806 20.3913 14.8638 19.5286 16.4479 18.0459L13.3595 15.6196C12.4942 16.2127 11.3893 16.5496 10.098 16.5496C7.59535 16.5496 5.47872 14.8378 4.71993 12.5463H1.53833V15.0534C3.16241 18.3289 6.47713 20.3913 10.098 20.3913Z" fill="#34A853"/>
<path d="M4.72016 12.5463C4.32073 11.3466 4.32073 10.0391 4.72016 8.82596V6.33228H1.53805C0.166679 9.06859 0.166679 12.3036 1.53805 15.0399L4.72016 12.5463Z" fill="#FBBC04"/>
<path d="M10.098 4.82255C11.4692 4.7956 12.7871 5.32129 13.7722 6.27833L16.5145 3.50158C14.7706 1.85709 12.4809 0.953975 10.098 0.980933C6.47713 0.980933 3.16241 3.05676 1.53833 6.33224L4.71993 8.83941C5.47872 6.53443 7.59535 4.82255 10.098 4.82255Z" fill="#EA4335"/>
</svg>
