<svg width="53" height="32" viewBox="0 0 53 32" fill="none" xmlns="http://www.w3.org/2000/svg">
<path fill-rule="evenodd" clip-rule="evenodd" d="M26.6566 28.2686C23.9244 30.5974 20.3802 32.0032 16.5074 32.0032C7.86607 32.0032 0.86084 25.004 0.86084 16.3699C0.86084 7.73585 7.86607 0.736572 16.5074 0.736572C20.3802 0.736572 23.9244 2.1424 26.6566 4.47117C29.3888 2.1424 32.933 0.736572 36.8058 0.736572C45.4471 0.736572 52.4524 7.73585 52.4524 16.3699C52.4524 25.004 45.4471 32.0032 36.8058 32.0032C32.933 32.0032 29.3888 30.5974 26.6566 28.2686Z" fill="#ED0006"/>
<path fill-rule="evenodd" clip-rule="evenodd" d="M26.6565 28.2686C30.0207 25.4012 32.154 21.1345 32.154 16.3699C32.154 11.6053 30.0207 7.33861 26.6565 4.47116C29.3887 2.1424 32.9329 0.736572 36.8056 0.736572C45.447 0.736572 52.4523 7.73585 52.4523 16.3699C52.4523 25.004 45.447 32.0032 36.8056 32.0032C32.9329 32.0032 29.3887 30.5974 26.6565 28.2686Z" fill="#F9A000"/>
<path fill-rule="evenodd" clip-rule="evenodd" d="M26.6566 28.2686C30.0208 25.4011 32.154 21.1344 32.154 16.3699C32.154 11.6053 30.0208 7.33863 26.6566 4.47119C23.2924 7.33863 21.1592 11.6053 21.1592 16.3699C21.1592 21.1344 23.2924 25.4011 26.6566 28.2686Z" fill="#FF5E00"/>
</svg>
