<svg width="60" height="60" viewBox="0 0 60 60" fill="none" xmlns="http://www.w3.org/2000/svg">
<path d="M26.6424 37.9185H22.5221L25.0972 22.0926H29.2179L26.6424 37.9185ZM19.0558 22.0926L15.1277 32.9778L14.6629 30.6338L14.6633 30.6346L13.2769 23.5175C13.2769 23.5175 13.1092 22.0926 11.3223 22.0926H4.8284L4.7522 22.3606C4.7522 22.3606 6.73806 22.7737 9.06216 24.1695L12.6419 37.9189H16.9349L23.4902 22.0926H19.0558ZM51.4642 37.9185H55.2475L51.9489 22.0922H48.6367C47.1072 22.0922 46.7347 23.2716 46.7347 23.2716L40.5896 37.9185H44.8847L45.7436 35.5678H50.9816L51.4642 37.9185ZM46.9303 32.3204L49.0952 26.3979L50.3131 32.3204H46.9303ZM40.9117 25.8984L41.4997 22.4998C41.4997 22.4998 39.6853 21.8098 37.7939 21.8098C35.7492 21.8098 30.8935 22.7035 30.8935 27.049C30.8935 31.1376 36.5924 31.1884 36.5924 33.3359C36.5924 35.4835 31.4807 35.0987 29.7937 33.7445L29.1811 37.2979C29.1811 37.2979 31.0209 38.1916 33.8319 38.1916C36.6437 38.1916 40.8855 36.7357 40.8855 32.7733C40.8855 28.6585 35.1353 28.2754 35.1353 26.4864C35.1357 24.697 39.1485 24.9268 40.9117 25.8984Z" fill="#2566AF"/>
<path d="M14.6633 30.6342L13.2769 23.5171C13.2769 23.5171 13.1092 22.0922 11.3223 22.0922H4.8284L4.7522 22.3601C4.7522 22.3601 7.87344 23.007 10.8673 25.4306C13.7298 27.7471 14.6633 30.6342 14.6633 30.6342Z" fill="#E6A540"/>
</svg>
