<svg width="28" height="29" viewBox="0 0 28 29" fill="none" xmlns="http://www.w3.org/2000/svg">
<path d="M8.75 2.25V5.75H5.25V2.25H8.75ZM15.75 5.75V2.25H12.25V5.75H15.75ZM22.75 5.75V2.25H19.25V5.75H22.75ZM22.75 12.75V9.25H19.25V12.75H22.75ZM15.75 9.25V12.75H12.25V9.25H15.75ZM8.75 12.75V9.25H5.25V12.75H8.75ZM22.75 16.25V19.75H19.25V16.25H22.75ZM22.75 26.75V23.25H19.25V26.75H22.75ZM15.75 16.25V19.75H12.25V16.25H15.75ZM15.75 26.75V23.25H12.25V26.75H15.75ZM8.75 16.25V19.75H5.25V16.25H8.75ZM8.75 26.75V23.25H5.25V26.75H8.75Z" fill="#5F9DF4"/>
</svg>
