<svg width="16" height="16" viewBox="0 0 16 16" fill="none" xmlns="http://www.w3.org/2000/svg">
<path d="M14 3.98665C11.78 3.76665 9.54667 3.65332 7.32 3.65332C6 3.65332 4.68 3.71999 3.36 3.85332L2 3.98665" stroke="#FF613E" stroke-width="1.33333" stroke-linecap="round" stroke-linejoin="round"/>
<path d="M5.66699 3.31301L5.81366 2.43967C5.92033 1.80634 6.00033 1.33301 7.12699 1.33301H8.87366C10.0003 1.33301 10.087 1.83301 10.187 2.44634L10.3337 3.31301" stroke="#FF613E" stroke-width="1.33333" stroke-linecap="round" stroke-linejoin="round"/>
<path d="M12.566 6.09375L12.1326 12.8071C12.0593 13.8537 11.9993 14.6671 10.1393 14.6671H5.85928C3.99928 14.6671 3.93928 13.8537 3.86595 12.8071L3.43262 6.09375" stroke="#FF613E" stroke-width="1.33333" stroke-linecap="round" stroke-linejoin="round"/>
<path d="M6.88574 11H9.10574" stroke="#FF613E" stroke-width="1.33333" stroke-linecap="round" stroke-linejoin="round"/>
<path d="M6.33301 8.33301H9.66634" stroke="#FF613E" stroke-width="1.33333" stroke-linecap="round" stroke-linejoin="round"/>
</svg>
