<svg width="16" height="16" viewBox="0 0 16 16" fill="none" xmlns="http://www.w3.org/2000/svg">
<path d="M14 4.66634V11.333C14 13.333 13 14.6663 10.6667 14.6663H5.33333C3 14.6663 2 13.333 2 11.333V4.66634C2 2.66634 3 1.33301 5.33333 1.33301H10.6667C13 1.33301 14 2.66634 14 4.66634Z" stroke="#9EA3AE" stroke-width="1.5" stroke-miterlimit="10" stroke-linecap="round" stroke-linejoin="round"/>
<path d="M8.00027 9.66656C8.61392 9.66656 9.11138 9.1691 9.11138 8.55545C9.11138 7.9418 8.61392 7.44434 8.00027 7.44434C7.38662 7.44434 6.88916 7.9418 6.88916 8.55545C6.88916 9.1691 7.38662 9.66656 8.00027 9.66656Z" stroke="#9EA3AE" stroke-width="1.5" stroke-linecap="round" stroke-linejoin="round"/>
<path d="M9.90908 12.5556C9.90908 11.6956 9.05353 11 8.0002 11C6.94686 11 6.09131 11.6956 6.09131 12.5556" stroke="#9EA3AE" stroke-width="1.5" stroke-linecap="round" stroke-linejoin="round"/>
<path d="M9.6665 3V4.33333C9.6665 5.06667 10.2665 5.66667 10.9998 5.66667H12.3332" stroke="#9EA3AE" stroke-width="1.5" stroke-miterlimit="10" stroke-linecap="round" stroke-linejoin="round"/>
</svg>
