<svg width="22" height="22" viewBox="0 0 41 40" fill="none" xmlns="http://www.w3.org/2000/svg">
<path d="M32.2734 11.9743C27.8334 11.5343 23.3668 11.3076 18.9134 11.3076C16.2734 11.3076 13.6334 11.441 10.9934 11.7076L8.27344 11.9743" stroke="#8885AA" stroke-width="2.66667" stroke-linecap="round" stroke-linejoin="round"/>
<path d="M15.6074 10.627L15.9008 8.88033C16.1141 7.61366 16.2741 6.66699 18.5274 6.66699H22.0208C24.2741 6.66699 24.4474 7.66699 24.6474 8.89366L24.9408 10.627" stroke="#8885AA" stroke-width="2.66667" stroke-linecap="round" stroke-linejoin="round"/>
<path d="M29.4073 16.1875L28.5406 29.6142C28.394 31.7075 28.274 33.3342 24.554 33.3342H15.994C12.274 33.3342 12.154 31.7075 12.0073 29.6142L11.1406 16.1875" stroke="#8885AA" stroke-width="2.66667" stroke-linecap="round" stroke-linejoin="round"/>
<path d="M18.0469 26H22.4869" stroke="#8885AA" stroke-width="2.66667" stroke-linecap="round" stroke-linejoin="round"/>
<path d="M16.9395 20.667H23.6061" stroke="#8885AA" stroke-width="2.66667" stroke-linecap="round" stroke-linejoin="round"/>
</svg>
