<svg width="20" height="20" viewBox="0 0 20 20" fill="none" xmlns="http://www.w3.org/2000/svg">
<path d="M9.16699 1.66699H7.50033C3.33366 1.66699 1.66699 3.33366 1.66699 7.50033V12.5003C1.66699 16.667 3.33366 18.3337 7.50033 18.3337H12.5003C16.667 18.3337 18.3337 16.667 18.3337 12.5003V10.8337" stroke="white" stroke-width="1.66667" stroke-linecap="round" stroke-linejoin="round"/>
<path d="M13.3666 2.51737L6.7999 9.08403C6.5499 9.33403 6.2999 9.8257 6.2499 10.184L5.89157 12.6924C5.75823 13.6007 6.3999 14.234 7.30823 14.109L9.81657 13.7507C10.1666 13.7007 10.6582 13.4507 10.9166 13.2007L17.4832 6.63403C18.6166 5.5007 19.1499 4.18403 17.4832 2.51737C15.8166 0.850699 14.4999 1.38403 13.3666 2.51737Z" stroke="white" stroke-width="1.66667" stroke-miterlimit="10" stroke-linecap="round" stroke-linejoin="round"/>
<path d="M12.4248 3.45898C12.9831 5.45065 14.5415 7.00898 16.5415 7.57565" stroke="white" stroke-width="1.66667" stroke-miterlimit="10" stroke-linecap="round" stroke-linejoin="round"/>
</svg>
