<svg width="100" height="100" viewBox="0 0 100 100" fill="none" xmlns="http://www.w3.org/2000/svg">
<circle cx="50" cy="50" r="50" fill="#CCE2FF"/>
<g filter="url(#filter0_d_738_10521)">
<path d="M49.5469 50C55.0697 50 59.5469 45.5228 59.5469 40C59.5469 34.4772 55.0697 30 49.5469 30C44.024 30 39.5469 34.4772 39.5469 40C39.5469 45.5228 44.024 50 49.5469 50Z" fill="white"/>
</g>
<g filter="url(#filter1_d_738_10521)">
<path d="M49.5472 55C39.5272 55 31.3672 61.72 31.3672 70C31.3672 70.56 31.8072 71 32.3672 71H66.7272C67.2872 71 67.7272 70.56 67.7272 70C67.7272 61.72 59.5672 55 49.5472 55Z" fill="white"/>
</g>
<rect width="100" height="100" rx="4" fill="#CCE2FF"/>
<path d="M68.6667 31.3333V68.6667H31.3333V31.3333H68.6667ZM68.6667 26H31.3333C28.4 26 26 28.4 26 31.3333V68.6667C26 71.6 28.4 74 31.3333 74H68.6667C71.6 74 74 71.6 74 68.6667V31.3333C74 28.4 71.6 26 68.6667 26ZM55.7067 49.6267L47.7067 59.9467L42 53.04L34 63.3333H66L55.7067 49.6267Z" fill="white"/>
<defs>
<filter id="filter0_d_738_10521" x="37.5469" y="28" width="28" height="28" filterUnits="userSpaceOnUse" color-interpolation-filters="sRGB">
<feFlood flood-opacity="0" result="BackgroundImageFix"/>
<feColorMatrix in="SourceAlpha" type="matrix" values="0 0 0 0 0 0 0 0 0 0 0 0 0 0 0 0 0 0 127 0" result="hardAlpha"/>
<feOffset dx="2" dy="2"/>
<feGaussianBlur stdDeviation="2"/>
<feComposite in2="hardAlpha" operator="out"/>
<feColorMatrix type="matrix" values="0 0 0 0 0.439216 0 0 0 0 0.396078 0 0 0 0 0.941176 0 0 0 0.1 0"/>
<feBlend mode="normal" in2="BackgroundImageFix" result="effect1_dropShadow_738_10521"/>
<feBlend mode="normal" in="SourceGraphic" in2="effect1_dropShadow_738_10521" result="shape"/>
</filter>
<filter id="filter1_d_738_10521" x="29.3672" y="53" width="44.3604" height="24" filterUnits="userSpaceOnUse" color-interpolation-filters="sRGB">
<feFlood flood-opacity="0" result="BackgroundImageFix"/>
<feColorMatrix in="SourceAlpha" type="matrix" values="0 0 0 0 0 0 0 0 0 0 0 0 0 0 0 0 0 0 127 0" result="hardAlpha"/>
<feOffset dx="2" dy="2"/>
<feGaussianBlur stdDeviation="2"/>
<feComposite in2="hardAlpha" operator="out"/>
<feColorMatrix type="matrix" values="0 0 0 0 0.439216 0 0 0 0 0.396078 0 0 0 0 0.941176 0 0 0 0.1 0"/>
<feBlend mode="normal" in2="BackgroundImageFix" result="effect1_dropShadow_738_10521"/>
<feBlend mode="normal" in="SourceGraphic" in2="effect1_dropShadow_738_10521" result="shape"/>
</filter>
</defs>
</svg>
