<svg width="20" height="21" viewBox="0 0 20 21" fill="none" xmlns="http://www.w3.org/2000/svg">
<path d="M17.5 5.48405C14.725 5.20905 11.9333 5.06738 9.15 5.06738C7.5 5.06738 5.85 5.15072 4.2 5.31738L2.5 5.48405" stroke="white" stroke-width="1.66667" stroke-linecap="round" stroke-linejoin="round"/>
<path d="M7.08301 4.64199L7.26634 3.55033C7.39967 2.75866 7.49967 2.16699 8.90801 2.16699H11.0913C12.4997 2.16699 12.608 2.79199 12.733 3.55866L12.9163 4.64199" stroke="white" stroke-width="1.66667" stroke-linecap="round" stroke-linejoin="round"/>
<path d="M15.7087 8.11621L15.167 16.5079C15.0753 17.8162 15.0003 18.8329 12.6753 18.8329H7.32533C5.00033 18.8329 4.92533 17.8162 4.83366 16.5079L4.29199 8.11621" stroke="white" stroke-width="1.66667" stroke-linecap="round" stroke-linejoin="round"/>
<path d="M8.6084 14.25H11.3834" stroke="white" stroke-width="1.66667" stroke-linecap="round" stroke-linejoin="round"/>
<path d="M7.91699 10.917H12.0837" stroke="white" stroke-width="1.66667" stroke-linecap="round" stroke-linejoin="round"/>
</svg>
