<svg width="225" height="250" viewBox="0 0 225 250" fill="none" xmlns="http://www.w3.org/2000/svg">
<path d="M146.716 98.1702L131.75 31.625H175.5C176.799 31.625 178.072 32.0268 179.177 32.7854C180.283 33.544 181.176 34.6294 181.758 35.9203L209.758 98.1702H146.716Z" fill="url(#paint0_linear_3809_12138)"/>
<path d="M93.2502 31.625H49.5002C48.2013 31.625 46.928 32.0268 45.8228 32.7854C44.7176 33.544 43.8241 34.6294 43.2422 35.9203L15.2422 98.1702H78.2842L93.2502 31.625Z" fill="url(#paint1_linear_3809_12138)"/>
<path d="M84.71 37.5232C85.0879 35.8391 85.9614 34.3438 87.1918 33.275C88.4221 32.2063 89.9386 31.6255 91.5 31.625H133.5C135.061 31.6255 136.578 32.2063 137.808 33.275C139.039 34.3438 139.912 35.8391 140.29 37.5232L154.29 99.7732C154.43 100.396 154.5 101.023 154.5 101.656H70.5C70.5006 101.021 70.5712 100.389 70.71 99.7732L84.71 37.5232Z" fill="url(#paint2_linear_3809_12138)"/>
<path d="M107.223 231.261L146.549 93.875H207.827L209.759 98.1703C210.364 99.5105 210.608 101.017 210.462 102.508C210.315 103.999 209.784 105.411 208.933 106.574L117.933 231.074C117.288 231.953 116.478 232.665 115.56 233.16C114.642 233.654 113.637 233.92 112.617 233.938C111.596 233.956 110.585 233.725 109.653 233.263C108.721 232.8 107.892 232.117 107.223 231.261Z" fill="url(#paint3_linear_3809_12138)"/>
<path d="M78.4527 93.875H17.1747L15.2427 98.1703C14.6371 99.5105 14.3929 101.017 14.5395 102.508C14.686 103.999 15.217 105.411 16.0687 106.574L107.069 231.074C107.713 231.953 108.523 232.665 109.442 233.16C110.36 233.654 111.364 233.92 112.385 233.938C113.405 233.956 114.416 233.725 115.348 233.263C116.28 232.8 117.109 232.117 117.779 231.261L78.4527 93.875Z" fill="url(#paint4_linear_3809_12138)"/>
<path d="M72.0411 93.875L70.7111 99.7732C70.4009 101.159 70.4397 102.612 70.8231 103.975L105.823 228.475C106.27 230.055 107.158 231.435 108.359 232.415C109.56 233.395 111.011 233.923 112.501 233.923C113.991 233.923 115.442 233.395 116.643 232.415C117.844 231.435 118.732 230.055 119.179 228.475L154.179 103.975C154.562 102.612 154.601 101.159 154.291 99.7732L152.961 93.875H72.0411Z" fill="url(#paint5_linear_3809_12138)"/>
<path d="M49.5007 31.625C48.2018 31.6251 46.9285 32.0268 45.8233 32.7854C44.7181 33.544 43.8246 34.6294 43.2427 35.9203L15.2427 98.1703C14.6371 99.5105 14.3929 101.017 14.5395 102.508C14.686 103.999 15.217 105.411 16.0687 106.574L107.069 231.074C107.725 231.972 108.553 232.695 109.493 233.192C110.432 233.689 111.46 233.947 112.501 233.947C113.541 233.947 114.569 233.689 115.508 233.192C116.448 232.695 117.276 231.972 117.933 231.074L208.933 106.574C209.787 105.412 210.32 104.001 210.469 102.51C210.618 101.019 210.376 99.512 209.773 98.1703L181.773 35.9203C181.19 34.627 180.294 33.54 179.186 32.7813C178.078 32.0226 176.802 31.6222 175.501 31.625H49.5007Z" fill="url(#paint6_linear_3809_12138)" fill-opacity="0.7"/>
<defs>
<linearGradient id="paint0_linear_3809_12138" x1="159.61" y1="31.625" x2="203.838" y2="131.614" gradientUnits="userSpaceOnUse">
<stop stop-color="#0FAFFF"/>
<stop offset="1" stop-color="#102784"/>
</linearGradient>
<linearGradient id="paint1_linear_3809_12138" x1="82.1062" y1="3.89263" x2="43.3971" y2="87.2203" gradientUnits="userSpaceOnUse">
<stop stop-color="#9FF0F9"/>
<stop offset="1" stop-color="#29C3FF"/>
</linearGradient>
<linearGradient id="paint2_linear_3809_12138" x1="112.5" y1="31.625" x2="112.5" y2="119.164" gradientUnits="userSpaceOnUse">
<stop stop-color="#3BD5FF"/>
<stop offset="1" stop-color="#367AF2"/>
</linearGradient>
<linearGradient id="paint3_linear_3809_12138" x1="234.805" y1="23.8437" x2="102.235" y2="202.726" gradientUnits="userSpaceOnUse">
<stop stop-color="#1B44B1"/>
<stop offset="1" stop-color="#2052CB"/>
</linearGradient>
<linearGradient id="paint4_linear_3809_12138" x1="32.7287" y1="65.8625" x2="123.615" y2="223.574" gradientUnits="userSpaceOnUse">
<stop stop-color="#0094F0"/>
<stop offset="1" stop-color="#6CE0FF"/>
</linearGradient>
<linearGradient id="paint5_linear_3809_12138" x1="112.445" y1="44.8531" x2="112.445" y2="233.938" gradientUnits="userSpaceOnUse">
<stop stop-color="#2052CB"/>
<stop offset="1" stop-color="#0FAFFF"/>
</linearGradient>
<linearGradient id="paint6_linear_3809_12138" x1="-5.40735" y1="-158.891" x2="181.359" y2="236.062" gradientUnits="userSpaceOnUse">
<stop offset="0.533" stop-color="#FF6CE8" stop-opacity="0"/>
<stop offset="1" stop-color="#FF6CE8"/>
</linearGradient>
</defs>
</svg>
