<svg width="16" height="16" viewBox="0 0 16 16" fill="none" xmlns="http://www.w3.org/2000/svg">
<path d="M14 4.66659V11.3333C14 13.3333 13 14.6666 10.6667 14.6666H5.33333C3 14.6666 2 13.3333 2 11.3333V4.66659C2 2.66659 3 1.33325 5.33333 1.33325H10.6667C13 1.33325 14 2.66659 14 4.66659Z" stroke="#9EA3AE" stroke-width="1.5" stroke-miterlimit="10" stroke-linecap="round" stroke-linejoin="round"/>
<path d="M8.00027 9.6668C8.61392 9.6668 9.11138 9.16934 9.11138 8.55569C9.11138 7.94204 8.61392 7.44458 8.00027 7.44458C7.38662 7.44458 6.88916 7.94204 6.88916 8.55569C6.88916 9.16934 7.38662 9.6668 8.00027 9.6668Z" stroke="#9EA3AE" stroke-width="1.5" stroke-linecap="round" stroke-linejoin="round"/>
<path d="M9.90908 12.5558C9.90908 11.6958 9.05353 11.0002 8.0002 11.0002C6.94686 11.0002 6.09131 11.6958 6.09131 12.5558" stroke="#9EA3AE" stroke-width="1.5" stroke-linecap="round" stroke-linejoin="round"/>
<path d="M9.6665 3V4.33333C9.6665 5.06667 10.2665 5.66667 10.9998 5.66667H12.3332" stroke="#9EA3AE" stroke-width="1.5" stroke-miterlimit="10" stroke-linecap="round" stroke-linejoin="round"/>
</svg>
